<svg width="65" height="65" viewBox="0 0 65 65" fill="none" xmlns="http://www.w3.org/2000/svg">
<path d="M47.814 14.2624C42.5327 11.0712 37.1503 12.6475 34.762 13.653C35.1044 10.5481 33.5911 8.62862 32.154 7.52771V7.52807C30.7669 6.48018 29.0857 5.89546 27.3479 5.85627C22.667 5.69667 18.9842 6.94697 16.3861 9.55496C12.2362 13.719 12.411 19.8129 12.419 20.0413V44.823C12.4204 45.1538 12.5532 45.4705 12.7879 45.7034C13.0229 45.9359 13.3406 46.0657 13.6711 46.0643H13.7055C14.7212 46.0258 38.7807 45.0486 49.4741 39.3804H49.4745C50.4923 38.8345 51.3421 38.0213 51.9316 37.0282C52.5214 36.0351 52.8289 34.8997 52.821 33.7448V22.2194C52.9135 18.882 50.5166 15.9 47.8139 14.2626L47.814 14.2624ZM17.3643 10.5169C19.554 8.32429 22.6567 7.21399 26.5952 7.21399C26.8277 7.21399 27.0645 7.21399 27.3061 7.22632C28.7574 7.26296 30.1615 7.74828 31.3251 8.61556C33.2294 10.069 33.8499 12.1093 33.1807 14.681C33.1111 14.9476 33.2087 15.2302 33.4277 15.3974C33.6468 15.5646 33.945 15.5842 34.184 15.4467C34.25 15.409 40.8872 11.6838 47.1069 15.4394C49.6725 16.9893 52.0835 20.1113 51.3004 23.3167C50.3805 27.0941 44.3618 33.7343 14.3943 35.715L13.7849 35.7505V20.0177C13.7849 19.963 13.6326 14.2511 17.3639 10.5175L17.3643 10.5169ZM51.453 33.7479C51.4603 34.6544 51.2202 35.5459 50.7584 36.3258C50.2967 37.106 49.631 37.7455 48.8327 38.175C38.8032 43.4958 15.7041 44.6111 13.794 44.6942V37.126L14.4847 37.0854C39.0101 35.4603 48.3441 30.6869 51.4585 26.2006L51.453 33.7479Z" fill="#80233A"/>
<path d="M20.2401 33.8401C20.4984 33.8405 20.7345 33.6954 20.851 33.4647C20.9674 33.2344 20.9442 32.958 20.7908 32.7505C16.9314 27.5189 17.4483 26.7177 17.4719 26.6861C17.8708 26.1569 21.575 27.532 23.5656 28.2704C25.9698 29.162 28.4558 30.0855 30.5662 30.4275C31.654 30.6041 32.8187 30.6734 33.2231 29.8537C33.7676 28.7506 32.37 27.3632 29.1555 24.3287C26.4054 21.7326 22.9826 18.5011 22.3632 16.2037C22.2972 15.9577 22.2137 15.5232 22.4009 15.3759C23.2936 14.6711 27.9626 15.8319 38.1746 21.416C41.6407 23.3123 46.7667 23.1244 46.9829 23.1171H46.9825C47.3594 23.1012 47.6525 22.7831 47.6376 22.4062C47.6333 22.2238 47.5553 22.0511 47.4211 21.9274C47.2872 21.8037 47.1088 21.7399 46.9267 21.75C46.8788 21.75 41.9676 21.9318 38.83 20.2164C29.1227 14.9087 23.3099 12.9203 21.5539 14.3015C21.1314 14.6338 20.6997 15.2946 21.041 16.5602C21.761 19.2363 25.1909 22.474 28.2154 25.3301C29.613 26.6504 31.4755 28.4074 31.8847 29.172H31.8851C31.5162 29.1814 31.1477 29.1517 30.7853 29.0828C28.807 28.7618 26.3837 27.864 24.0415 26.9935C20.1822 25.5603 17.3921 24.5244 16.3808 25.8691C15.6626 26.8209 15.9513 28.4944 19.6907 33.5675L19.6903 33.5679C19.8202 33.7405 20.0241 33.8414 20.2399 33.8399L20.2401 33.8401Z" fill="#80233A"/>
</svg>
