<svg width="78" height="71" viewBox="0 0 78 71" fill="none" xmlns="http://www.w3.org/2000/svg">
<path d="M56.931 17.0056C55.5895 15.245 53.6425 14.0919 51.4522 13.7508C50.4977 13.603 49.5367 13.609 48.5756 13.7734C46.4415 10.8823 43.1217 9.13861 39.5899 9.13861C36.0642 9.13861 32.7444 10.8823 30.6042 13.7734C29.6431 13.6086 28.6825 13.603 27.7275 13.7508C25.5373 14.0915 23.5903 15.2504 22.2488 17.0056C20.6139 19.1412 20.015 21.9701 20.5952 24.7645C21.4501 28.8657 24.645 31.9893 28.3831 32.8131C28.377 32.8416 28.3704 32.8757 28.3704 32.9098V47.0925C28.3704 47.1607 28.3831 47.2288 28.414 47.2855C28.3892 47.3762 28.3704 47.4673 28.3704 47.5636C28.3704 48.4666 29.5749 49.1424 32.0585 49.6369C34.18 50.0628 37.0006 50.2958 39.9834 50.2958C42.9724 50.2958 45.7864 50.0628 47.9083 49.6369C50.392 49.1428 51.5964 48.4609 51.5964 47.5636C51.5964 47.4669 51.5838 47.3762 51.5529 47.2855C51.5777 47.2229 51.5964 47.1607 51.5964 47.0925L51.5955 32.9098C51.5955 32.8075 51.5581 32.7053 51.5019 32.6257C54.9215 31.5805 57.7732 28.5987 58.572 24.7646C59.1648 21.9701 58.5593 19.1413 56.931 17.0057L56.931 17.0056ZM47.4709 48.6433C45.449 49.024 42.7909 49.2395 39.989 49.2395C37.1871 49.2395 34.529 49.0296 32.5071 48.6433C30.2359 48.2114 29.5931 47.7173 29.5369 47.5695C29.5931 47.4217 30.2359 46.9221 32.5071 46.4958C34.529 46.1151 37.1871 45.8995 39.989 45.8995C42.7909 45.8995 45.449 46.1095 47.4709 46.4958C49.7421 46.9277 50.385 47.4217 50.4411 47.5695C50.385 47.7173 49.7425 48.2114 47.4709 48.6433ZM50.4411 32.9097V46.2516C49.8357 45.9619 48.9995 45.7119 47.9139 45.496C45.7924 45.0701 42.9719 44.8371 39.989 44.8371C37.0001 44.8371 34.186 45.0701 32.0641 45.496C30.9846 45.7119 30.1424 45.9619 29.5369 46.2516L29.5373 32.9949C29.8055 33.0174 30.074 33.0345 30.3422 33.0345C30.7913 33.0345 31.2471 33.0004 31.7024 32.9322C32.7505 32.7674 33.7428 32.4211 34.6479 31.8986C36.1643 32.6653 37.8489 33.0856 39.5838 33.0856C41.3249 33.0856 43.0033 32.6708 44.5198 31.8986C45.4247 32.4212 46.4166 32.7675 47.4653 32.9322C47.921 33.0004 48.3763 33.0345 48.8255 33.0345C49.3683 33.0345 49.9049 32.9834 50.4355 32.8867C50.4477 32.8926 50.4412 32.9037 50.4412 32.9097L50.4411 32.9097ZM57.4363 24.5655C56.4565 29.2855 52.0699 32.563 47.6706 31.8815C46.9528 31.7678 46.2729 31.5578 45.6301 31.2511C45.6549 31.2341 45.6736 31.217 45.6989 31.2055C45.7676 31.16 45.836 31.1148 45.9048 31.0637C45.9483 31.0296 45.9922 31.0011 46.0419 30.967C46.0919 30.933 46.1415 30.8933 46.1916 30.8533C46.2477 30.8078 46.3039 30.7681 46.36 30.7226C46.3975 30.694 46.4288 30.6715 46.4597 30.6429C46.5285 30.5863 46.5968 30.5352 46.6595 30.4781C46.6782 30.4611 46.6969 30.444 46.7157 30.427C46.7966 30.3589 46.8715 30.2907 46.9464 30.2226L46.9524 30.217C47.6515 29.5922 48.2691 28.8822 48.8058 28.0926C48.8246 28.07 48.8372 28.0415 48.8559 28.0189C48.8994 27.9563 48.9434 27.8881 48.9808 27.826C48.9995 27.7974 49.0183 27.7633 49.0431 27.7352C49.0431 27.7297 49.0492 27.7297 49.0492 27.7237C49.2864 27.3489 49.4983 26.9626 49.6981 26.5593C49.8292 26.2923 49.6981 25.9801 49.3987 25.8608C49.1053 25.7416 48.7623 25.8608 48.6313 26.1334C47.7264 27.9908 46.3039 29.5641 44.6064 30.5979C44.5629 30.6205 44.5254 30.649 44.4815 30.6716C44.4253 30.7057 44.3692 30.7397 44.313 30.7683C42.8714 31.5749 41.2553 32.0179 39.5769 32.0179C37.8984 32.0179 36.2758 31.5749 34.8407 30.7683C34.7845 30.7397 34.7345 30.7057 34.6783 30.6716C34.6348 30.6431 34.5909 30.6205 34.5473 30.5919C32.8503 29.5583 31.4273 27.9849 30.5224 26.1275C30.3914 25.8604 30.048 25.7412 29.755 25.8549C29.4617 25.9741 29.3307 26.2867 29.4556 26.5534C29.6488 26.9567 29.8673 27.343 30.1046 27.7178C30.1046 27.7233 30.1046 27.7233 30.1107 27.7293C30.1294 27.7578 30.1481 27.7919 30.1668 27.82C30.2103 27.8882 30.2543 27.9508 30.2978 28.013C30.3165 28.0355 30.3292 28.0641 30.3479 28.0866C30.8846 28.8763 31.5083 29.5863 32.2074 30.2166C32.2884 30.2848 32.3632 30.353 32.4446 30.4211C32.4633 30.4381 32.4821 30.4496 32.4947 30.4667C32.5634 30.5233 32.6318 30.5804 32.7006 30.637C32.7319 30.6655 32.7628 30.6881 32.8002 30.7167C32.8564 30.7622 32.9186 30.8074 32.9748 30.853C33.0248 30.887 33.0684 30.9267 33.1184 30.9607C33.1685 30.9948 33.212 31.0289 33.2621 31.0629C33.3308 31.1085 33.3931 31.1537 33.4619 31.1992C33.4867 31.2163 33.5119 31.2333 33.5367 31.2504C32.8938 31.557 32.214 31.7674 31.4962 31.8807C27.097 32.5622 22.7103 29.2848 21.7305 24.5648C21.2065 22.0484 21.7432 19.5152 23.1969 17.6066C24.3573 16.0843 26.0361 15.0848 27.9144 14.7892C28.5821 14.687 29.2624 14.6699 29.9423 14.7496C29.8674 14.8688 29.7986 14.9936 29.7303 15.1133C29.5866 15.3744 29.7055 15.6925 29.9923 15.8233C30.2792 15.954 30.6287 15.8459 30.7723 15.5848C32.6004 12.2563 35.9764 10.1889 39.577 10.1889C43.1776 10.1889 46.5534 12.2563 48.3816 15.5848C48.4813 15.7722 48.6872 15.8799 48.9057 15.8799C48.9932 15.8799 49.0802 15.8629 49.1677 15.8233C49.4545 15.6925 49.5734 15.3744 49.4297 15.1133C49.361 14.9885 49.2926 14.8692 49.2178 14.7496C49.8981 14.6759 50.5718 14.687 51.2456 14.7892C53.1238 15.0788 54.8027 16.0844 55.9631 17.6066C57.4304 19.5163 57.9606 22.0551 57.4365 24.5655L57.4363 24.5655Z" fill="#80233A"/>
</svg>
