<svg width="55" height="55" viewBox="0 0 55 55" fill="none" xmlns="http://www.w3.org/2000/svg">
<path d="M41.5495 16.4521H40.5873C40.6647 16.3192 40.7405 16.1863 40.8092 16.0546C41.0146 15.6799 41.2236 15.2784 41.3491 14.911C42.5891 11.7936 41.4854 8.15292 38.7271 6.25479C36.2146 4.52041 32.9604 4.52041 30.4355 6.2551C29.4208 6.95733 28.6332 7.86739 28.0946 8.95757C27.8573 9.43237 27.6646 9.96092 27.4992 10.5658C27.3337 9.96091 27.141 9.43237 26.9053 8.96063C26.3657 7.8677 25.5778 6.95769 24.5631 6.2551C22.044 4.51459 18.7906 4.51514 16.2723 6.25387C13.5131 8.15247 12.4094 11.7935 13.645 14.9007C13.7758 15.2444 13.9578 15.633 14.1831 16.0433C14.2543 16.1796 14.3322 16.3162 14.4114 16.4515L13.4505 16.4518C10.2812 16.4518 7.70312 19.0297 7.70312 22.1992V23.9588C7.70312 25.6717 8.79087 27.1311 10.3098 27.6949L12.1529 39.6763C12.5871 42.5002 14.9766 44.5498 17.8333 44.5498H37.1658C40.0223 44.5498 42.4114 42.5002 42.8463 39.6763L44.69 27.6949C46.2089 27.1314 47.2961 25.6714 47.2961 23.9588V22.1992C47.2967 19.0299 44.7182 16.4521 41.5493 16.4521L41.5495 16.4521ZM29.239 9.52553C29.6815 8.62966 30.3288 7.88261 31.1609 7.30621C33.2448 5.8744 35.9292 5.87471 38.0021 7.3059C40.2755 8.87057 41.1836 11.8701 40.1524 14.467C40.0471 14.7724 39.8676 15.1152 39.6834 15.4516C39.5536 15.6992 39.4016 15.9491 39.2473 16.2054L39.1236 16.3941C39.1113 16.4134 39.0972 16.4328 39.0849 16.4518H28.1383V15.8057C28.1383 14.4317 28.2694 13.0699 28.5269 11.7596C28.7101 10.8404 28.936 10.1314 29.2386 9.52552L29.239 9.52553ZM31.3312 26.669H23.6681V17.7292H31.3312V26.669ZM15.877 16.3958L15.7672 16.2273C15.6118 15.9723 15.4507 15.7077 15.3105 15.44C15.1085 15.0705 14.9511 14.7369 14.8375 14.4376C13.8164 11.8693 14.7249 8.8695 16.9988 7.30483C19.0763 5.86964 21.761 5.86964 23.8373 7.30452C24.6706 7.88184 25.3182 8.62885 25.7623 9.52786C26.0628 10.1288 26.2887 10.8381 26.4728 11.757C26.7306 13.0691 26.8614 14.4309 26.8614 15.805V16.4511H23.0298L15.9142 16.4508C15.9025 16.4333 15.8887 16.4142 15.877 16.3958L15.877 16.3958ZM8.98113 23.9583V22.1987C8.98113 19.7339 10.9863 17.7287 13.4511 17.7287H22.3902V26.6694L11.6911 26.6697C10.1965 26.669 8.98074 25.4534 8.98074 23.9586L8.98113 23.9583ZM13.4158 39.4817L11.6409 27.9458H23.029V43.272H17.8341C15.6123 43.272 13.7539 41.6785 13.416 39.4815L13.4158 39.4817ZM24.3066 43.2721V27.946H30.6923V43.2721H24.3066ZM43.3601 27.946L41.5852 39.4818C41.247 41.6785 39.3886 43.2723 37.1671 43.2723H31.9703V27.9461L43.3601 27.946ZM46.0199 23.9582C46.0199 25.4528 44.8039 26.6689 43.3092 26.6689L32.6086 26.6692V17.7285H41.55C44.0149 17.7285 46.02 19.7337 46.02 22.1985L46.0199 23.9582Z" fill="#80233A"/>
</svg>
