<svg width="55" height="37" viewBox="0 0 55 37" fill="none" xmlns="http://www.w3.org/2000/svg">
<path fill-rule="evenodd" clip-rule="evenodd" d="M40.6055 11.2978C40.2611 11.2983 39.9824 11.577 39.9824 11.9213V17.9907C39.9824 18.3346 40.2611 18.6138 40.6055 18.6138H49.1768C49.4103 18.6138 49.6237 18.4838 49.7307 18.2764C49.8377 18.069 49.8199 17.8194 49.6851 17.6294L45.3679 11.56C45.251 11.3957 45.0618 11.2978 44.8601 11.2978L40.6055 11.2978ZM41.229 12.5444H44.5382L47.9684 17.3667H41.2285V12.5444H41.229Z" fill="#80233A"/>
<path fill-rule="evenodd" clip-rule="evenodd" d="M3.42527 0C1.5434 0 0 1.53292 0 3.40201V25.4477C0 27.3168 1.5434 28.8497 3.42527 28.8497H7.89973C8.3275 31.203 10.4057 33 12.8987 33C15.3903 33 17.4708 31.204 17.899 28.8497H41.2739C41.7021 31.2035 43.7842 33 46.2742 33C48.7641 33 50.8463 31.2035 51.2745 28.8497H52.2946C53.78 28.8497 54.9942 27.6367 54.9942 26.168V18.0406H54.9947C55.0067 17.9498 54.9982 17.8572 54.9706 17.7699C54.967 17.7567 54.963 17.7438 54.9581 17.731H54.9567C54.9567 17.731 54.9567 17.7305 54.9563 17.7305C54.9278 17.6499 54.8827 17.5763 54.8243 17.5134L47.9483 8.03746V8.03702C47.8283 7.87177 47.6356 7.77342 47.4299 7.77342L38.5123 7.76766V3.40423C38.5123 1.53515 36.9689 0.00222899 35.087 0.00222899H3.4253L3.42527 0ZM3.42527 1.27014H35.087C36.2731 1.27014 37.2335 2.22353 37.2335 3.40201V27.5799H17.966C17.7724 24.9691 15.5706 22.9006 12.8988 22.9006C10.2273 22.9006 8.02511 24.9691 7.83156 27.5799H3.42539C2.23929 27.5799 1.27894 26.6265 1.27894 25.448V3.40234C1.27894 2.22385 2.23885 1.27048 3.42539 1.27048L3.42527 1.27014ZM38.5127 9.03557L47.1025 9.04133L53.7162 18.1553V26.1678C53.7162 26.9436 53.0824 27.5793 52.2956 27.5793H51.3424C51.1488 24.9685 48.9466 22.9 46.2751 22.9C43.6036 22.9 41.4015 24.9685 41.2079 27.5793H38.5128L38.5127 9.03557ZM12.8997 24.1708C15.0055 24.1708 16.7019 25.8548 16.7019 27.9538V28.0247C16.6636 30.0826 14.9841 31.7302 12.8997 31.7302C10.7934 31.7302 9.10422 30.052 9.09748 27.9662V27.9555C9.09748 25.8564 10.7938 24.1726 12.8997 24.1726V24.1708ZM46.2754 24.1708C48.3812 24.1708 50.0777 25.8548 50.0777 27.9538C50.0777 30.0458 48.3813 31.7302 46.2754 31.7302C44.1696 31.7302 42.4732 30.0454 42.4732 27.9538C42.4732 25.8547 44.1695 24.1708 46.2754 24.1708Z" fill="#80233A"/>
<path fill-rule="evenodd" clip-rule="evenodd" d="M19.8783 8.96364C19.7113 8.96103 19.5505 9.02581 19.4318 9.14278C19.3131 9.26018 19.2461 9.41975 19.2461 9.58672C19.2461 9.75368 19.3131 9.91369 19.4318 10.0307C19.5505 10.148 19.7113 10.2124 19.8783 10.2102H32.1034C32.2704 10.2124 32.4313 10.1481 32.55 10.0307C32.6691 9.91369 32.7356 9.75368 32.7356 9.58672C32.7356 9.41975 32.6691 9.26018 32.55 9.14278C32.4313 9.02581 32.2704 8.96103 32.1034 8.96364H19.8783Z" fill="#80233A"/>
<path fill-rule="evenodd" clip-rule="evenodd" d="M14.2855 14.5569C14.1186 14.5543 13.9577 14.6191 13.839 14.7365C13.7203 14.8535 13.6533 15.0135 13.6533 15.18C13.6533 15.347 13.7203 15.507 13.839 15.6239C13.9577 15.7413 14.1186 15.8057 14.2855 15.8035H32.104C32.2709 15.8057 32.4318 15.7413 32.5505 15.6239C32.6696 15.507 32.7362 15.347 32.7362 15.18C32.7362 15.0135 32.6696 14.8535 32.5505 14.7365C32.4318 14.6191 32.2709 14.5543 32.104 14.5569H14.2855Z" fill="#80233A"/>
<path fill-rule="evenodd" clip-rule="evenodd" d="M2.71033 34.9744C2.54337 34.9718 2.38249 35.0366 2.26379 35.1536C2.14509 35.271 2.07812 35.4306 2.07812 35.5975C2.07812 35.7645 2.14508 35.9245 2.26379 36.0415C2.38249 36.1589 2.54337 36.2232 2.71033 36.221H50.0647C50.2317 36.2232 50.3926 36.1589 50.5113 36.0415C50.6304 35.9245 50.6969 35.7645 50.6969 35.5975C50.6969 35.4306 50.6304 35.271 50.5113 35.1536C50.3926 35.0366 50.2317 34.9718 50.0647 34.9744H2.71033Z" fill="#80233A"/>
</svg>
