<svg width="92" height="64" viewBox="0 0 92 64" fill="none" xmlns="http://www.w3.org/2000/svg">
<path fill-rule="evenodd" clip-rule="evenodd" d="M24.7087 21.2264C23.9212 22.1642 22.6612 22.9039 21.4012 22.7982C21.2437 21.5302 21.8606 20.183 22.5825 19.3508C23.3699 18.3866 24.7481 17.6998 25.8637 17.647C25.9949 18.9678 25.4831 20.2622 24.7087 21.2264ZM25.8508 23.0492C24.7407 22.9849 23.7279 23.3852 22.9098 23.7085C22.3833 23.9165 21.9375 24.0927 21.5983 24.0927C21.2177 24.0927 20.7534 23.9071 20.2322 23.6987C19.5492 23.4257 18.7684 23.1135 17.9495 23.1285C16.0727 23.1549 14.3271 24.2248 13.3689 25.9286C11.4002 29.3364 12.8571 34.3819 14.7602 37.1556C15.6921 38.5293 16.8077 40.035 18.2777 39.9822C18.9244 39.9576 19.3896 39.759 19.871 39.5534C20.4253 39.3167 21.0011 39.0708 21.9002 39.0708C22.768 39.0708 23.3187 39.3103 23.8472 39.5402C24.3498 39.7587 24.8324 39.9686 25.5489 39.9558C27.0714 39.9293 28.0295 38.5821 28.9614 37.2085C29.967 35.7342 30.4089 34.2953 30.476 34.077L30.4839 34.0517C30.4823 34.0501 30.4698 34.0443 30.4479 34.0343C30.1117 33.8794 27.5423 32.6956 27.5176 29.5213C27.4929 26.8569 29.5557 25.5069 29.8804 25.2944C29.9002 25.2815 29.9135 25.2728 29.9195 25.2682C28.607 23.3134 26.5595 23.1021 25.8508 23.0492ZM36.3898 39.8101V19.2185H44.0678C48.0316 19.2185 50.8009 21.9658 50.8009 25.9811C50.8009 29.9964 47.9791 32.7701 43.9628 32.7701H39.566V39.8101H36.3898ZM39.5667 21.9131H43.2285C45.9847 21.9131 47.5597 23.3924 47.5597 25.9945C47.5597 28.5965 45.9847 30.089 43.2154 30.089H39.5667V21.9131ZM61.2881 37.3406C60.4481 38.952 58.5975 39.9691 56.6025 39.9691C53.6494 39.9691 51.5888 38.1991 51.5888 35.5311C51.5888 32.8894 53.5838 31.3705 57.2719 31.146L61.2356 30.9082V29.7723C61.2356 28.0949 60.1463 27.1835 58.2038 27.1835C56.6025 27.1835 55.4344 28.0156 55.1982 29.2836H52.3369C52.4288 26.6155 54.9225 24.6739 58.2957 24.6739C61.9313 24.6739 64.2938 26.5891 64.2938 29.561V39.8106H61.3538V37.3406H61.2881ZM57.4555 37.5254C55.7624 37.5254 54.6862 36.7065 54.6862 35.4517C54.6862 34.1573 55.7231 33.4044 57.7049 33.2855L61.2355 33.061V34.2233C61.2355 36.1517 59.608 37.5254 57.4555 37.5254ZM74.0454 40.6162C72.7722 44.222 71.3154 45.4108 68.2179 45.4108C67.9816 45.4108 67.1941 45.3843 67.0104 45.3315V42.8616C67.2073 42.888 67.6929 42.9144 67.9423 42.9144C69.3466 42.9144 70.1341 42.32 70.6197 40.7747L70.9085 39.8633L65.5273 24.872H68.8479L72.5885 37.0367H72.6541L76.3947 24.872H79.6235L74.0454 40.6162Z" fill="black"/>
</svg>
