<svg width="92" height="63" viewBox="0 0 92 63" fill="none" xmlns="http://www.w3.org/2000/svg">
<path d="M54.6302 45.4963H38.3018V16.5054H54.6302V45.4963Z" fill="#FF5F00"/>
<path d="M39.3473 30.9985C39.3473 25.1175 42.1344 19.8789 46.4748 16.503C43.3008 14.0343 39.2951 12.5609 34.9417 12.5609C24.6356 12.5609 16.2812 20.8155 16.2812 30.9985C16.2812 41.1814 24.6356 49.436 34.9417 49.436C39.2951 49.436 43.3008 47.9626 46.4748 45.4939C42.1344 42.118 39.3473 36.8794 39.3473 30.9985Z" fill="#EB001B"/>
<path d="M76.6517 30.9985C76.6517 41.1814 68.2974 49.436 57.9912 49.436C53.6379 49.436 49.6322 47.9626 46.457 45.4939C50.7985 42.118 53.5857 36.8794 53.5857 30.9985C53.5857 25.1175 50.7985 19.8789 46.457 16.503C49.6322 14.0343 53.6379 12.5609 57.9912 12.5609C68.2974 12.5609 76.6517 20.8155 76.6517 30.9985Z" fill="#F79E1B"/>
</svg>
