<svg width="92" height="65" viewBox="0 0 92 65" fill="none" xmlns="http://www.w3.org/2000/svg">
<path fill-rule="evenodd" clip-rule="evenodd" d="M42.2123 32.6323L42.6106 30.0757L41.7233 30.0548H37.4863L40.4309 11.1882C40.4401 11.1311 40.4697 11.0781 40.513 11.0404C40.5566 11.0026 40.612 10.9819 40.6701 10.9819H47.8143C50.1863 10.9819 51.823 11.4806 52.6775 12.4649C53.0781 12.9267 53.3333 13.4094 53.4568 13.9404C53.5863 14.4977 53.5884 15.1634 53.4621 15.9755L53.453 16.0346V16.555L53.8536 16.7844C54.1909 16.9653 54.4591 17.1722 54.6648 17.4092C55.0074 17.8041 55.2291 18.306 55.3227 18.9008C55.4196 19.5126 55.3876 20.2409 55.2291 21.0653C55.0462 22.0134 54.7507 22.8393 54.3516 23.515C53.9846 24.1376 53.517 24.6541 52.9616 25.0543C52.4315 25.4346 51.8017 25.7232 51.0896 25.908C50.3994 26.0895 49.6126 26.1811 48.7496 26.1811H48.1936C47.7962 26.1811 47.41 26.3258 47.1069 26.5851C46.8028 26.8499 46.6019 27.2116 46.5402 27.6072L46.4982 27.8375L45.7944 32.3439L45.7626 32.5092C45.754 32.5616 45.7395 32.5877 45.7182 32.6054C45.6992 32.6215 45.6719 32.6323 45.6452 32.6323H42.2123Z" fill="#28356A"/>
<path fill-rule="evenodd" clip-rule="evenodd" d="M54.2337 16.0947C54.2126 16.2325 54.1881 16.3733 54.1608 16.5179C53.2186 21.4061 49.9952 23.0948 45.8785 23.0948H43.7824C43.2789 23.0948 42.8546 23.4641 42.7763 23.966L41.3992 32.7931C41.3482 33.1227 41.5995 33.4196 41.9285 33.4196H45.6462C46.0863 33.4196 46.4603 33.0964 46.5297 32.6577L46.5661 32.4669L47.2661 27.9782L47.3111 27.732C47.3796 27.2918 47.7545 26.9684 48.1946 26.9684H48.7506C52.3525 26.9684 55.1722 25.4908 55.9964 21.2144C56.3405 19.4281 56.1623 17.9365 55.2514 16.8874C54.9757 16.5712 54.6337 16.3086 54.2337 16.0947Z" fill="#298FC2"/>
<path fill-rule="evenodd" clip-rule="evenodd" d="M53.2483 15.6972C53.1043 15.6547 52.9559 15.6163 52.8035 15.5816C52.6503 15.5478 52.4935 15.5178 52.332 15.4915C51.7669 15.3992 51.1475 15.3555 50.4843 15.3555H44.8846C44.7466 15.3555 44.6156 15.3869 44.4985 15.4439C44.2401 15.5693 44.0483 15.8164 44.0018 16.1189L42.8105 23.7432L42.7764 23.9655C42.8547 23.4636 43.279 23.0943 43.7825 23.0943H45.8786C49.9953 23.0943 53.2187 21.4048 54.1608 16.5175C54.189 16.3728 54.2127 16.232 54.2338 16.0943C53.9955 15.9664 53.7373 15.8571 53.4593 15.764C53.3906 15.7409 53.3198 15.7187 53.2483 15.6972Z" fill="#22284F"/>
<path fill-rule="evenodd" clip-rule="evenodd" d="M44.0012 16.1189C44.0478 15.8165 44.2396 15.5694 44.4979 15.4448C44.6159 15.3877 44.746 15.3562 44.8841 15.3562H50.4837C51.147 15.3562 51.7663 15.4002 52.3315 15.4924C52.493 15.5185 52.6498 15.5487 52.803 15.5826C52.9553 15.6171 53.1038 15.6556 53.2478 15.6979C53.3193 15.7195 53.3901 15.7419 53.4594 15.7641C53.7374 15.8572 53.9958 15.9674 54.2341 16.0944C54.5144 14.288 54.2317 13.0581 53.2653 11.9443C52.1996 10.7181 50.2765 10.1934 47.8156 10.1934H40.6712C40.1685 10.1934 39.7397 10.5627 39.662 11.0654L36.6863 30.1259C36.6277 30.503 36.9155 30.8432 37.2918 30.8432H41.7025L44.0012 16.1189Z" fill="#28356A"/>
<path fill-rule="evenodd" clip-rule="evenodd" d="M21.1635 37.8213H15.9545C15.598 37.8213 15.2949 38.083 15.2392 38.4387L13.1324 51.9361C13.0906 52.2025 13.2948 52.4425 13.5621 52.4425H16.0488C16.4053 52.4425 16.7085 52.181 16.7642 51.8246L17.3323 48.184C17.3871 47.8277 17.6909 47.566 18.0468 47.566H19.6957C23.1269 47.566 25.1072 45.8881 25.6245 42.5633C25.8575 41.1085 25.6344 39.9657 24.9602 39.1652C24.2199 38.2863 22.9067 37.8213 21.1635 37.8213ZM21.7642 42.7511C21.4793 44.6398 20.0512 44.6398 18.6705 44.6398H17.8843L18.4358 41.1124C18.4686 40.8992 18.6513 40.7423 18.8646 40.7423H19.2249C20.1656 40.7423 21.0529 40.7423 21.5113 41.284C21.7849 41.6072 21.8685 42.0875 21.7642 42.7511Z" fill="#28356A"/>
<path fill-rule="evenodd" clip-rule="evenodd" d="M36.8664 42.5882H34.372C34.1595 42.5882 33.9758 42.7452 33.9432 42.9584L33.8327 43.6633L33.6584 43.4079C33.1184 42.6158 31.9141 42.3511 30.7123 42.3511C27.9557 42.3511 25.6014 44.4608 25.1429 47.4201C24.9046 48.8962 25.2434 50.3079 26.0723 51.2923C26.8324 52.1973 27.92 52.5746 29.214 52.5746C31.4351 52.5746 32.6665 51.1314 32.6665 51.1314L32.5554 51.8319C32.5135 52.0996 32.7177 52.3398 32.9835 52.3398H35.2303C35.5876 52.3398 35.8893 52.0781 35.9456 51.7217L37.2937 43.0946C37.3364 42.829 37.1329 42.5882 36.8664 42.5882ZM33.3893 47.4941C33.1487 48.934 32.0177 49.9007 30.5751 49.9007C29.8508 49.9007 29.272 49.6659 28.9001 49.2211C28.5315 48.7794 28.3915 48.1505 28.5086 47.4501C28.7335 46.0225 29.8834 45.0241 31.3041 45.0241C32.0124 45.0241 32.5882 45.2621 32.9675 45.7105C33.3475 46.1639 33.4983 46.7967 33.3893 47.4941Z" fill="#28356A"/>
<path fill-rule="evenodd" clip-rule="evenodd" d="M49.9599 42.8042H47.4531C47.2139 42.8042 46.9893 42.9243 46.8538 43.1252L43.3965 48.271L41.9311 43.3259C41.8389 43.0166 41.5564 42.8042 41.2364 42.8042H38.7734C38.4738 42.8042 38.266 43.0998 38.3612 43.3846L41.1223 51.5721L38.5265 55.2749C38.3224 55.5666 38.528 55.9676 38.8807 55.9676H41.3843C41.6219 55.9676 41.8443 55.8506 41.9791 55.6537L50.3161 43.493C50.5158 43.2022 50.3108 42.8042 49.9599 42.8042Z" fill="#28356A"/>
<path fill-rule="evenodd" clip-rule="evenodd" d="M58.3156 37.8213H53.106C52.7504 37.8213 52.4472 38.083 52.3915 38.4387L50.2847 51.9361C50.2429 52.2025 50.4471 52.4425 50.7129 52.4425H53.3863C53.6345 52.4425 53.8469 52.2595 53.8858 52.01L54.4838 48.184C54.5386 47.8277 54.8426 47.566 55.1983 47.566H56.8466C60.2784 47.566 62.258 45.8881 62.776 42.5633C63.0099 41.1085 62.7852 39.9657 62.111 39.1652C61.3714 38.2863 60.0591 37.8213 58.3156 37.8213ZM58.9167 42.7511C58.6325 44.6398 57.2044 44.6398 55.8228 44.6398H55.0377L55.5898 41.1124C55.6225 40.8992 55.8038 40.7423 56.0178 40.7423H56.3781C57.3179 40.7423 58.2061 40.7423 58.6645 41.284C58.938 41.6072 59.021 42.0875 58.9167 42.7511Z" fill="#298FC2"/>
<path fill-rule="evenodd" clip-rule="evenodd" d="M74.0164 42.5882H71.5234C71.3095 42.5882 71.1275 42.7452 71.0955 42.9584L70.985 43.6633L70.8098 43.4079C70.2698 42.6158 69.0664 42.3511 67.8644 42.3511C65.108 42.3511 62.7546 44.4608 62.2961 47.4201C62.0585 48.8962 62.3957 50.3079 63.2244 51.2923C63.9862 52.1973 65.0721 52.5746 66.3663 52.5746C68.5872 52.5746 69.8188 51.1314 69.8188 51.1314L69.7077 51.8319C69.6659 52.0996 69.8698 52.3398 70.1374 52.3398H72.3834C72.7391 52.3398 73.0422 52.0781 73.0979 51.7217L74.4467 43.0946C74.4879 42.829 74.2837 42.5882 74.0164 42.5882ZM70.5394 47.4941C70.3002 48.934 69.1676 49.9007 67.7249 49.9007C67.0021 49.9007 66.4218 49.6659 66.05 49.2211C65.6815 48.7794 65.5429 48.1505 65.6585 47.4501C65.8848 46.0225 67.0333 45.0241 68.4539 45.0241C69.1622 45.0241 69.738 45.2621 70.1174 45.7105C70.4988 46.1639 70.6497 46.7967 70.5394 47.4941Z" fill="#298FC2"/>
<path fill-rule="evenodd" clip-rule="evenodd" d="M76.7488 38.1923L74.6109 51.9367C74.5691 52.2032 74.7731 52.4431 75.0389 52.4431H77.1883C77.5457 52.4431 77.8486 52.1816 77.9035 51.8253L80.0117 38.3286C80.0538 38.0621 79.8496 37.8213 79.5838 37.8213H77.177C76.9645 37.8219 76.7817 37.9791 76.7488 38.1923Z" fill="#298FC2"/>
</svg>
