<?xml version="1.0" encoding="utf-8"?><svg viewBox="0 0 80 59" xmlns="http://www.w3.org/2000/svg" xmlns:xlink="http://www.w3.org/1999/xlink"><style>:root>svg{display:none}:root>svg:target{display:block}</style><svg viewBox="0 0 20 32" id="arrow" xmlns="http://www.w3.org/2000/svg"><path d="M18.964 14.985 2.951.392a1.35 1.35 0 0 0-1.903 0 1.335 1.335 0 0 0 0 1.894L16.095 16 1.05 29.714a1.335 1.335 0 0 0 0 1.894 1.35 1.35 0 0 0 1.903 0l16.013-14.593c.28-.279.4-.648.382-1.014a1.33 1.33 0 0 0-.383-1.016Z"/></svg><svg viewBox="0 0 20 32" id="arrow-right" xmlns="http://www.w3.org/2000/svg"><path d="M18.964 14.985 2.951.392a1.35 1.35 0 0 0-1.903 0 1.335 1.335 0 0 0 0 1.894L16.095 16 1.05 29.714a1.335 1.335 0 0 0 0 1.894 1.35 1.35 0 0 0 1.903 0l16.013-14.593c.28-.279.4-.648.382-1.014a1.33 1.33 0 0 0-.383-1.016Z"/></svg><svg viewBox="0 0 36 34" id="btn-grid" xmlns="http://www.w3.org/2000/svg"><path d="M6.044 26.445H1.511c-.834 0-1.511.676-1.511 1.51v4.534C0 33.324.677 34 1.511 34h4.533c.835 0 1.512-.676 1.512-1.511v-4.533c0-.835-.677-1.511-1.512-1.511ZM20.211 26.445h-4.533c-.835 0-1.511.676-1.511 1.51v4.534c0 .835.676 1.511 1.51 1.511h4.534c.835 0 1.511-.676 1.511-1.511v-4.533c0-.835-.676-1.511-1.51-1.511ZM34.378 26.445h-4.534c-.834 0-1.51.676-1.51 1.51v4.534c0 .835.676 1.511 1.51 1.511h4.534c.834 0 1.51-.676 1.51-1.511v-4.533c0-.835-.676-1.511-1.51-1.511ZM6.044 13.222H1.511C.677 13.222 0 13.9 0 14.733v4.534c0 .834.677 1.51 1.511 1.51h4.533c.835 0 1.512-.676 1.512-1.51v-4.534c0-.834-.677-1.51-1.512-1.51ZM20.211 13.222h-4.533c-.835 0-1.511.677-1.511 1.511v4.534c0 .834.676 1.51 1.51 1.51h4.534c.835 0 1.511-.676 1.511-1.51v-4.534c0-.834-.676-1.51-1.51-1.51ZM34.378 13.222h-4.534c-.834 0-1.51.677-1.51 1.511v4.534c0 .834.676 1.51 1.51 1.51h4.534c.834 0 1.51-.676 1.51-1.51v-4.534c0-.834-.676-1.51-1.51-1.51ZM6.044 0H1.511C.677 0 0 .677 0 1.511v4.533c0 .835.677 1.512 1.511 1.512h4.533c.835 0 1.512-.677 1.512-1.512V1.511C7.556.677 6.879 0 6.044 0ZM20.211 0h-4.533c-.835 0-1.511.677-1.511 1.511v4.533c0 .835.676 1.512 1.51 1.512h4.534c.835 0 1.511-.677 1.511-1.512V1.511c0-.834-.676-1.511-1.51-1.511ZM34.378 0h-4.534c-.834 0-1.51.677-1.51 1.511v4.533c0 .835.676 1.512 1.51 1.512h4.534c.834 0 1.51-.677 1.51-1.512V1.511c0-.834-.676-1.511-1.51-1.511Z"/></svg><svg viewBox="0 0 35 35" id="btn-list" xmlns="http://www.w3.org/2000/svg"><path d="M32.4 28h-7.8c-1.436 0-2.6.627-2.6 1.4v4.2c0 .773 1.164 1.4 2.6 1.4h7.8c1.436 0 2.6-.627 2.6-1.4v-4.2c0-.773-1.164-1.4-2.6-1.4ZM10.4 28H2.6c-1.436 0-2.6.627-2.6 1.4v4.2c0 .773 1.164 1.4 2.6 1.4h7.8c1.436 0 2.6-.627 2.6-1.4v-4.2c0-.773-1.164-1.4-2.6-1.4ZM32.4 14h-7.8c-1.436 0-2.6.627-2.6 1.4v4.2c0 .773 1.164 1.4 2.6 1.4h7.8c1.436 0 2.6-.627 2.6-1.4v-4.2c0-.773-1.164-1.4-2.6-1.4ZM10.4 14H2.6c-1.436 0-2.6.627-2.6 1.4v4.2c0 .773 1.164 1.4 2.6 1.4h7.8c1.436 0 2.6-.627 2.6-1.4v-4.2c0-.773-1.164-1.4-2.6-1.4ZM32.4 0h-7.8C23.164 0 22 .627 22 1.4v4.2c0 .773 1.164 1.4 2.6 1.4h7.8c1.436 0 2.6-.627 2.6-1.4V1.4C35 .627 33.836 0 32.4 0ZM10.4 0H2.6C1.164 0 0 .627 0 1.4v4.2C0 6.373 1.164 7 2.6 7h7.8c1.436 0 2.6-.627 2.6-1.4V1.4C13 .627 11.836 0 10.4 0Z"/></svg><svg viewBox="0 0 21 23" id="cart" xmlns="http://www.w3.org/2000/svg"><path d="M10.5 1.438a3.594 3.594 0 0 1 3.594 3.593v.719H6.906v-.719A3.594 3.594 0 0 1 10.5 1.438Zm5.031 4.312v-.719a5.031 5.031 0 1 0-10.062 0v.719H.437v14.375A2.875 2.875 0 0 0 3.313 23h14.374a2.875 2.875 0 0 0 2.875-2.875V5.75h-5.03ZM1.875 7.188h17.25v12.937a1.438 1.438 0 0 1-1.438 1.438H3.313a1.438 1.438 0 0 1-1.437-1.438V7.187Z"/><path d="M1.875 7.188h17.25v12.937a1.438 1.438 0 0 1-1.438 1.438H3.313a1.438 1.438 0 0 1-1.437-1.438V7.187Z"/></svg><svg viewBox="0 0 80 27" id="cocacola" xmlns="http://www.w3.org/2000/svg"><path d="M30.72 22.851c-2.976-1.918-7.016-2.254-13.531-.447-6.946 1.633-9.262 2.679-12.303.579-1.168-1.032-1.587-2.694-1.274-5.087.725-3.9 2.686-7.655 6.168-11.819 1.944-2.166 3.747-4.025 6.128-4.772 1.825-.468 1.654.966 1.434 1.171-.233 0-.625.037-.927.234-.246.19-.92.806-.956 1.633-.052 1.266 1.258 1.002 1.823.307.61-.783 1.51-2.283.801-3.681-.296-.498-.81-.842-1.446-.959-2.18-.124-4.21.915-6.085 2.064-4.098 2.847-7.376 6.792-9.231 11.11C.25 15.789-.716 19.52.734 22.558c1.122 2.108 3.45 3.227 6.228 2.993 1.948-.204 4.304-.834 5.889-1.214 1.584-.381 9.695-3.17 12.36 1.683 0 0 .886-1.72 3.1-1.757 1.822-.168 4.448.527 6.361 1.932-.637-.958-2.444-2.37-3.951-3.344Z"/><path d="M18.016 6.567c-1.517-.995-4.566.908-7.008 4.172-2.233 2.928-3.198 6.33-2.148 7.904 1.56 1.851 4.459-.842 5.691-2.283l.16-.169c.837-.9 1.485-1.983 2.112-3.023l.603-.995c.356-.066.785-.168 1.268-.307-.007.022-1.849 3.117-1.66 4.654.058.469.013 2.181 1.685 2.7 2.229.374 4.008-1.353 5.578-2.89l.418-.402-.088.358c-.652 2.268.227 2.745.777 2.92 1.663.484 3.649-1.932 3.655-1.932-.051.761-.202 1.39.6 1.895.757.271 1.523-.142 2.106-.53 2.097-1.478 3.787-3.792 5.152-5.791h-.87c-.011 0-2.149 3.098-3.537 3.772-.002 0-.255.13-.4.027-.18-.154-.11-.473.002-.7.006-.015 5.36-9.3 5.36-9.3h-2.528s-.276.447-.298.476c-.017-.014-.058-.091-.086-.128-1.566-2.166-5.112 1.166-7.782 5.03-1.028 1.486-2.337 3.159-3.694 4.366 0 0-2.01 1.843-2.869.52-.314-.557-.217-1.37-.04-1.905 1-2.847 2.723-5.43 4.684-6.99.554-.43 1.156-.556 1.454-.373.285.17.33.586.15.871-.456-.014-.822.125-1.12.432-.585.615-.79 1.208-.603 1.764.905 1.288 2.71-1.259 2.623-2.81-.031-.557-.328-1.084-.77-1.34-.66-.395-1.668-.293-2.32.022-.872.33-2.253 1.478-3.06 2.371-1.014 1.12-2.754 2.364-3.299 2.225.178-.476 1.648-3.484.102-4.61Zm12.186 4.45c.492-.68 1.923-2.503 2.272-2.81 1.173-1.032 1.642-.578 1.683-.256a231.413 231.413 0 0 1-3.603 6.228c.002-.007-.38.578-.38.578-.537.82-1.078 1.522-1.959 2.012-.126.037-.333.052-.47-.051a.499.499 0 0 1-.214-.483c.053-.63.694-2.554 2.671-5.218Zm-13.75 1.178s-.023.066-.033.088c-.003 0-1.103 1.793-1.103 1.793-.663.885-1.491 1.998-2.527 2.532-.306.103-.73.169-.947-.102-.458-.549-.222-1.31-.03-1.925l.068-.22c.55-1.492 1.423-2.81 2.273-4.032a.112.112 0 0 1 .043-.014c.002.007.005.007.007.022.533 1.024 1.533 1.5 2.28 1.72.005 0 .01.007.01.021a.36.36 0 0 1-.041.117Zm1.04-2.114c-.004.014-.489 1.127-.489 1.127-.07.058-.18.029-.308 0l-.217-.037c-.684-.212-1.199-.666-1.358-1.208-.219-1.054.681-1.88 1.078-2.18.38-.264.972-.403 1.316-.132.212.249.292.57.292.922 0 .475-.147 1.01-.313 1.508Zm31.955 3.395c-.244-.527-.822-.864-1.439-.827-2.002.183-3.96 1.83-4.99 4.193-.539 1.215-.833 2.218-1.026 3.813.622-.717 1.892-1.895 3.334-2.539 0 0 .196-1.53 1.196-2.89.378-.565 1.135-1.472 1.986-1.23.742.248.481 2.305-.506 4.295-.73 1.464-1.849 2.928-2.98 3.938-1 .849-2.48 1.873-3.774 1.083-.816-.483-1.232-1.493-1.144-2.796.39-3.695 2.072-6.842 4.48-10.428 2.482-3.33 5.218-6.748 8.905-8.57.752-.381 1.448-.469 2.05-.235 0 0-3.46 1.903-5.11 5.423-.42.893-1.003 2.1-.416 3.17.308.555.853.6 1.292.57 2.022-.468 3.328-2.357 4.395-4.084.62-1.31 1.17-2.612 1.17-4.061 0-.176-.01-.41-.025-.586.966-.512 2.947.395 2.947.395 1.548.513 4.844 3.038 5.956 3.52.542-.629 1.433-1.58 1.935-2.056l-.726-.446c-1.163-.71-2.393-1.384-3.603-2.05-2.748-1.5-4.984-.973-6.123-.563-.447.161-.856.3-.856.3-.845-.922-2.23-.834-3.251-.585-3.672 1.053-7.08 3.622-10.735 8.08-2.687 3.49-4.353 6.506-5.241 9.484-.685 2.005-.893 4.955.778 6.704 1.42 1.485 3.305 1.163 4.635.63 2.883-1.42 5.474-4.48 6.765-8 .312-1.047.657-2.525.12-3.652Zm6.629-11.029c-.382 4.377-3.784 6.946-4.626 7.15-.51.103-1.38-.124-.603-1.96 1.144-2.475 3.098-4.575 5.194-5.65.05.182.05.299.035.46Zm20.18.556c-1.83 1.04-3.728 1.713-6.024 1.479a35.275 35.275 0 0 0-1.827 2.217c3.223.82 6.64-1.003 8.545-2.737C78.966 2.213 80 .01 80 .01s-1.511 1.727-3.745 2.993ZM41.672 6.648h-2.4l-1.355 2.2h2.4l1.355-2.2Z"/><path d="M70.223 23.055c-.258.175-.621.04-.486-.362.338-1.025 1.68-3.113 1.68-3.113l3.74-6.632h-2.561c-.122.2-.382.659-.382.659-.119-.197-.473-.636-.619-.731-.626-.396-1.544-.209-2.177.15-2.754 1.61-4.763 4.791-6.348 7.273 0 0-1.668 2.758-2.594 2.963-.723.058-.648-.916-.617-1.142.28-1.64.928-3.199 1.582-4.611a35.414 35.414 0 0 0 4.228-3.454c2.994-2.862 5.518-6.104 5.886-6.829 0 0-.399.08-.87.095-2.303 3.213-7.017 7.883-8.446 8.578.634-1.523 4.723-8.79 8.203-12.266l.548-.527c.847-.827 1.724-1.676 2.408-1.815.072-.008.165 0 .246.168.03.644-.21 1.12-.485 1.661l-.385.791s.546-.103.905-.22c.415-.783.876-1.661.706-2.707a.777.777 0 0 0-.619-.652c-1.038-.197-2.17.57-3.08 1.193l-.036.022c-4.68 3.666-8.632 8.95-12.087 16.167-.25.19-1.218.417-1.383.307.342-.703.771-1.647.986-2.671.037-.293.072-.593.072-.886 0-.63-.151-1.222-.716-1.632-.661-.33-1.479-.176-2.03.073-2.47 1.025-4.316 3.557-5.648 5.643-.716 1.325-1.43 2.744-1.629 4.369-.139 1.273.145 2.093.869 2.502.744.38 1.681-.015 2.05-.205 2.501-1.317 4.25-3.959 5.628-6.374.054-.007.807-.029 1.376-.176.008 0 .01 0 .023.008-.032.11-.326.988-.326.988-.874 2.561-1.278 4.303-.453 5.335 1.18 1.456 3.131-.051 4.719-2.042-.341 2.386.895 2.76 1.838 2.576 1.083-.292 2.29-1.449 2.849-2.041-.18.695-.131 1.939.854 2.063.675.125 1.18-.242 1.765-.557 2.097-1.142 4.607-4.947 5.258-6.046h-.854c-.927 1.4-2.106 3.235-3.588 4.107ZM51.4 22.8a1.153 1.153 0 0 1-.182-.647c-.025-1.435 1.519-4.005 2.609-5.405h.002c.457 1 1.49 1.642 2.115 1.913-.775 1.728-3.434 5.427-4.544 4.139Zm4.982-4.91c-.074.05-1.378-.389-1.63-1.596-.214-1.04.502-1.852 1.194-2.261.298-.235.746-.315 1.074-.198.305.205.388.571.388.966 0 .242-.032.49-.06.717l-.007.051a9.756 9.756 0 0 1-.96 2.32Zm10.46 4.449c-.002 0-.248.22-.248.22-.352.314-.714.65-1.15.482-.122-.044-.206-.204-.227-.33-.02-.9.385-1.734.779-2.546l.1-.212c1.131-1.888 2.446-4.113 4.376-5.657.325-.235.678-.432 1.05-.278.087.08.186.22.186.358 0 .044-.039.161-.061.198-.54.871-1.053 1.786-1.552 2.664-.976 1.734-1.988 3.527-3.254 5.1Z"/></svg><svg viewBox="0 0 80 58" id="dr-pepper" xmlns="http://www.w3.org/2000/svg"><g clip-path="url(#ga)"><path d="M71.878 15.605a1.224 1.224 0 1 0-.002-2.449 1.224 1.224 0 0 0 .002 2.45Z"/><path d="M72.865 13.931a1.086 1.086 0 0 1-.733 1.506 1.083 1.083 0 0 1-1.176-1.62c.111-.183.274-.328.468-.418a1.09 1.09 0 0 1 1.441.533ZM46.7 32.835v.323l-5.423 2.557v-.43s.734-.708.734-2.667V20.39s-.236-1.588-1.028-1.933v-.347l3.195-1.375c.313-.135 1.053-.71 1.248-1.03h.286v1.088c1.053-1.646 2.455-2.651 4.149-2.77 2.664-.195 3.339 2.879 3.255 5.016-.135 3.647-2.421 7.76-6.072 8.477-.421.084-.886-.007-1.332-.152v3.681c.002.002-.05 1.336.988 1.79Z"/><path d="M34.659 38.333v.33l-5.414 2.558v-.43s.726-.71.726-2.668V25.897s-.237-1.59-1.03-1.935v-.345l3.205-1.377c.313-.133 1.053-.71 1.248-1.038h.28V22.3c1.06-1.648 2.452-2.651 4.148-2.777 2.664-.188 3.33 2.878 3.254 5.023-.135 3.638-2.411 7.753-6.061 8.47-.43.084-.894 0-1.34-.153v3.691c-.002-.004-.045 1.33.984 1.779Zm29.806-24.857-6.67 3.25s-.051 2.33 2.04 2.33 4.654-3.3 4.654-3.3l.236.127-.809 3.14s-3.584 3.513-6.796 3.513c-3.221 0-3.322-4.561-3.322-4.561s-.21-5.124 4.755-8.166c4.968-2.987 6.174 1.758 5.912 3.667Z"/><path d="m28.925 29.72-6.67 3.25s-.051 2.33 2.04 2.33S28.949 32 28.949 32l.236.135-.809 3.14s-3.585 3.505-6.806 3.505c-3.211 0-3.322-4.55-3.322-4.55s-.202-5.133 4.763-8.165c4.97-2.98 6.175 1.748 5.914 3.657Z"/><path d="M18.823 40.012v.313l-8.49 3.909v-.362s1.171-1.3 1.171-3.445v-17.15s.085-3.31-1.635-3.968v-.285l9.275-4.273c5.218-2.416 6.787.059 6.998 2.498.27 3.049-.994 6.61-3.878 8.327-1.407.835-2.843 1.62-4.3 2.229v-.514c1.982-1.537 3.146-4.137 3.078-6.695-.034-1.124-1.137-2.6-2.58-1.884l-1.872.939v16.793c0-.002-.053 4.118 2.233 3.568Zm51.183-23.54v.236L64.795 19.2v-.422s.59-.794.59-2.306V9.068s-.118-1.047-1.012-1.62l3.684-1.697s.641-.355.928-.777l.195.203v1.097s1.255-2.61 3.078-2.61v3.2s-2.233.388-3.061 2.407v5.724s0 .99.809 1.477Zm-22.244-3.664v.236l-5.21 2.492v-.422s.59-.794.59-2.306V5.404s-.119-1.047-1.005-1.621l3.676-1.697s.641-.352.928-.776l.202.202V2.61S48.2 0 50.02 0v3.2s-2.243.387-3.06 2.406v5.725c.002 0 .002.987.802 1.477ZM34.22 19.369l-7.124 3.36v-.438s.901-.71.901-3.209V6.772s-.125-1.69-1.221-1.57v-.288l7.319-3.36c3.163-1.453 7.8-.49 7.8 4.364v1.807c-.002 5.32-3.476 9.66-7.675 11.644ZM11.193 54.63s-.582.16-.708.352c-.127.195-.354.162-.64.195-.287.036-.287.447-.675.447-.38 0-.769.103-.86.424-.102.32-.514.608-.937.666-.413.068-.894-.058-.379-.38.516-.323.058-.549.058-.71 0-.16.068-.574.32-.674.263-.093.836-.641.836-.641s.195-.287-.125-.321c-.32-.034-.547-.092-.64.127-.093.228-.642 1.19-.642 1.19s-.708-.092-.834.355c-.125.446-.481.835-.64.895-.16.067-.355-.16-.608.035-.253.196-.32-.38-.573-.06-.262.321-.836.287-.836.287s.253-.902-.067-.583c-.32.32-.928.803-1.35.777-.413-.034-.64.026-.8.22-.159.192-.7.033-.7.033l-.39-.389s.48-.32.64-.574c.162-.253.483-.767.642-1.054.16-.295.125-.616.446-.71.32-.1.388-.388.388-.675 0-.285-.48-.253-.641-.067 0 0 0-.381.286-.642a36.523 36.523 0 0 0 1.316-1.25c.253-.253.354-.253.354.036 0 .285.058.835.354.835.287 0 .607-.263.675-.55.06-.285.64-.927.38-1.122-.253-.195-.573-.127-.7.126-.136.26-.514.133-.196-.22.32-.354.608-.87.735-1.124.126-.262.388-.514.927-.641.55-.135 2.792-.71 3.433-1.064.641-.353 2.183-1.317 3.431-1.696 1.248-.389.961-.55 1.855-.642.902-.101 1.67-.642 2.15-.964.48-.321.893-.674.893-.321v.06s.229-.381.868-.803c.64-.415 1.568-.608 2.115-.608.547 0 .675-.094.868-.287.185-.195.508-.353.64-.066.126.285.608.066.827-.094.229-.161.388-.388.195-.583-.195-.186-.414-.608-.195-.702.229-.101.49-.101.49.161 0 .254.187.736.38.7.194-.024.159-.927.547-.7.38.22.927-.101 1.5-.287.583-.195 1.063-.835 1.097-.352.024.48.573-.136.835-.297.253-.16.574-1.02 1.087-.77.514.263.514.355.195.609-.32.262-.354.675-.32 1.097.026.415.159.38.64.195.482-.195 3.525-1.476 3.812-1.638.287-.16 2.243-1.123 2.243-1.123s.286-.102.159-.389c-.126-.287-.092-.673-.388-.71-.287-.025-.766-.607-.48-1.123.295-.514.456-.861.456-.22 0 .644.219.736.48.449.252-.287.414-.355.54-.094.125.253.286.058.48-.101.196-.162.48-.06.642.126.159.195.294-.059.354-.321.067-.256.26-1.286.927-1.158.675.135 1.407.135 1.407-.126 0-.253-.16-.48.092-.48.253 0 .48.227.414.767l.48-.026v.929l6.19-2.794s.606-.126.447-.803c-.16-.677-.06-.514-.32-.54-.253-.034-.574-.548-.347-.835.22-.295.38-.871.506-.456.135.422.354.972.354.972s.262.414.448-.295c.195-.702.352-1.054.708-1.317.352-.253.894-.447 1.029-.642.125-.188.22-.482.54-.347.32.126.159.285-.126.48-.287.188-.768.644-.482.862.287.229.415.262.547.103.128-.162.287-.23.287.16 0 .38-.034.86.354.86.379 0 .574-.285.675-.673.092-.381.06-.77.448-.415.378.353.32-.094.32-.094s.058-.388.514-.294c.445.101 1.247-.026 1.534-.253a52.017 52.017 0 0 1 1.383-.997s.448-.354.607.16c0 0 .195-.321.38-.321.195 0 0-.801.297-.253.286.54 1.373-.871 2.917-1.064 0 0 .414-.22.573.067.16.287.355-.48.834-.32.48.16.516-.353.995-.38.482-.035 1.602-.093 1.602-.641 0-.54-.067-.736-.296-.77-.219-.033-.159-.285.195-.412.354-.136.388.666.514 1.122.127.448.286.127.515-.102.227-.22 1.407-1.088 1.855-.962.455.125.8.034.937.48.125.448.32 0 .32-.218 0-.229-.135-1.285.446-1.512.574-.229.735-.195.995.034.253.22.38-.034.54.54.16.584.513.321.802.162.294-.162 1.222-1.023 1.795-1.023.583 0 .422-.263.422-.263s0-.446.48.036c.48.48.286.263.734.034.448-.227.901-.803.995-.227.092.583.414.352.64-.026.23-.389.23-.972.894-1.192.675-.227 1.51-.514 1.636-.743.135-.22.262-.347.514-.347.262 0 .547-.068.547-.32 0-.264.06-.618.287-.136.226.482.573 1.223-.388 1.58-.962.353-1.73.379-2.05.379-.32 0-.641-.094-.446.354l.446 1.03s-.868-.067-.995.286c-.128.354-.607 1.157-.641 1.698-.034.548-.379.066-.379-.128 0-.193-.421-1.02-.742-1.283-.32-.254-.412-.254-.513.034-.092.287-.574-.068-.64.287-.059.354-.321.482-.642.482-.32 0-.927.447-.38.674.54.228 1.053.414 1.053.414s.64.23-.195.355c-.836.125-1.821.195-2.21.125-.387-.058-1.028-.125-1.028.415 0 .548-.125.736-.481.929-.345.195-.574.48-.574.48s-.768-.446-1.122-.54c-.354-.101-.514.094-.547.415-.034.32.033.55-.287.641-.32.094-1.19.255-1.602.482-.414.228-.995.355-1.156.768 0 0-.574-.22-.894.161-.32.389-1.602 1.098-2.436 1.098-.834 0-2.79.803-3.433 1.214l-.195-.285s-1.956.895-1.956 1.155c0 0-.734-.135-1.407.254-.675.388-.735.482-.482 1.352 0 0-1.212-.16-1.508.093-.287.253-1.18.735-1.248 1.157-.06.413-.448.066-.48-.161-.035-.227.034-.422.422-.548.38-.128.185-.516-.101-.516-.287 0-1.41.32-1.636.516-.22.195-.735.388-.834.127-.094-.255-.508-.127-.665.196-.161.32-.708.641-.135.835.583.195 1.35.352 1.51.227.16-.126.641-.997.641-.642s-.16.861-.513 1.088c-.354.23-.482-.253-1.342-.16 0 0-.294.353-.294.642 0 0-.641.389-.802.575-.16.195-.641-.218-.894-.286-.262-.06-.708-.195-.961.068-.262.253.06.54-.262.673-.32.126-.701.736-1.408.77-.7.034-2.243.48-2.47.606-.219.127-.665.287-.665-.254 0-.547-.421-.388-.481-.033-.068.353-.034 1.03-.573 1.283-.54.253-1.09.126-1.342.287-.26.16-1.67 1.19-1.99 1.351-.32.161-3.845 1.959-9.555 4.263l-.32-.32c.058.087-7.05 4.461-14.318 7.29Z"/><path d="M33.673 25.195v5.7c.311.049.631.085.935 0 1.518-.398 2.192-1.992 2.192-3.548v-2.482c0-.989-.64-1.638-1.34-1.63-.946.018-1.425.93-1.787 1.96Zm-8.584 3.935-2.86 1.409c.078-.878.659-1.96 1.492-2.374.499-.242 1.333-.319 1.368.965Zm7.293-11.881V5.666c4.358-3.606 5.067 1.75 5.009 3.86-.075 3.072-1.18 6.727-5.009 7.723Zm28.247-4.364-2.85 1.409c.068-.878.65-1.967 1.492-2.372.498-.253 1.332-.328 1.358.963Zm-14.915 6.812v5.7c.313.059.624.085.928.008 1.517-.405 2.2-2 2.2-3.555v-2.48c0-.997-.642-1.648-1.34-1.639-.945.017-1.436.936-1.788 1.966ZM71.726 15.155l.16-.075-.244-.524.404-.185c.253-.119.287.142.379.277l.094.143.195-.092c-.12-.075-.111-.109-.195-.26-.118-.204-.128-.23-.296-.247.084-.152.1-.227.024-.379-.142-.277-.345-.229-.53-.144l-.547.253.556 1.233Z"/><path d="M71.786 13.813c.092-.041.253-.094.328.133.06.162-.034.237-.144.288l-.388.18-.195-.424.399-.177Z"/></g><defs><clipPath id="ga"><path d="M0 0h80v57.325H0z"/></clipPath></defs></svg><svg viewBox="0 0 20 14" id="email" xmlns="http://www.w3.org/2000/svg"><path d="M18.25.125H1.75A1.375 1.375 0 0 0 .375 1.5v11a1.375 1.375 0 0 0 1.375 1.375h16.5a1.375 1.375 0 0 0 1.375-1.375v-11A1.375 1.375 0 0 0 18.25.125ZM16.738 1.5 10 6.161 3.263 1.5h13.475ZM1.75 12.5V2.126l7.858 5.438a.687.687 0 0 0 .784 0l7.858-5.438V12.5H1.75Z"/></svg><svg viewBox="0 0 33 32" id="facebook" xmlns="http://www.w3.org/2000/svg"><g clip-path="url(#ia)"><path d="M21.65 5.313h2.901V.225C24.051.156 22.33 0 20.325 0c-4.183 0-7.048 2.65-7.048 7.519V12H8.66v5.688h4.616V32h5.659V17.69h4.429L24.068 12h-5.133V8.083c0-1.644.44-2.77 2.715-2.77Z"/></g><defs><clipPath id="ia"><path transform="translate(.469)" d="M0 0h31.778v32H0z"/></clipPath></defs></svg><svg viewBox="0 0 80 59" id="fanta" xmlns="http://www.w3.org/2000/svg"><g clip-path="url(#ja)"><path d="M34.438 58.701c16.159 0 29.258-13.14 29.258-29.35S50.596 0 34.438 0C18.279 0 5.18 13.14 5.18 29.35s13.1 29.351 29.258 29.351Z"/><path d="m0 16.311 16.069-1.682s-5.753-4.665-6.376-6.83c0 0-.24-1.2 1.677-1.83 1.918-.63 10.07-3.848 10.07-3.848s11.752-3.656 17.265 10.683l9.83-1.54v1.54L65.8 12.32l.623 6.013h4.316l5.18 17.944L53.38 53.84s-5.18 4.472-16.544 4.713L3.89 45.421 0 16.31Z"/><path d="M11.703 7.893s6.573-2.5 7.098-3.031c.573-.576 8.392-3.514 13.812 1.2 0 0 3.836 3.754 5.038 8.276l2.3 4.714 1.196 2.214s.334.817 0 .965c-.333.148-2.78-3.755-2.78-3.755l-1.104-1.59s-.962-1.249-3.743-.673c-2.781.575-7.048 1.058-10.119.531-3.016-.58-10.119-6.643-11.698-8.851Z"/><path d="M24.172 16.695c-3.071-.532-10.168-6.593-11.753-8.802 0 0 6.573-2.5 7.097-3.031.29-.29 2.83-1.349 5.994-1.442-3.453-.098-6.376 1.107-6.715 1.442-.568.575-7.092 3.03-7.092 3.03 1.585 2.264 8.682 8.326 11.753 8.803 1.054.192 2.207.241 3.404.241-.962-.049-1.874-.098-2.688-.24Z"/><path d="M17.457 9.575s3.021-1.49 4.65 0c3.212 2.933 10.167 4.473 11.511 4.188 0 0-6.955 1.59-8.966.482-2.639-1.447-4.223-3.42-7.195-4.67ZM2.448 18.476 6.19 44.215l5.513-.384-.863-11.066 5.513-.482-.721-4.812-5.513.723-.48-4.664 6.714-1.2-.962-6.161-12.943 2.307Zm28.679 2.165 2.639 21.025 5.13-.575-.72-10.584 8.391 9.718 3.983-.482-3.12-25.498-5.66.625 1.197 10.682-6.568-6.018-5.272 1.107Z"/><path d="m36.4 20.017 6.572 6.012-.049-.532-6.524-5.963-5.278 1.107.05.433 5.228-1.057Zm11.03-5.295 3.071 25.02h.05l-3.12-25.497-5.66.625.098.482 5.562-.63Zm-9.255 16.262.721 10.101-.672-10.101h-.049ZM48.873 15.204l.716 5.678 3.355.1 1.535 17.703 6.376-.143-.623-18.043 4.459-.334-.864-6.161-14.954 1.2Z"/><path d="m49.447 15.78 4.557-.625 9.829-1.156-14.965 1.2.72 5.684h.482l-.623-5.103Zm4.076 5.777-.53-.05 1.486 17.178.53-.05-1.486-17.078ZM24.51 19.293l-5.42.625-2.3 23.48 4.317-.24 1.103-6.255 3.12-.383 2.535 5.771 4.557-.625-7.912-22.373Zm-2.398 13.615.623-4.09h.961l1.437 3.755-3.021.335Z"/><path d="m19.232 20.11 5.322-.768-.05-.049-5.37.625-2.3 23.43.961-.048 1.437-23.19Zm9.496 22.033-2.688-5.678-.623.098 2.448 5.728 4.557-.625v-.142l-3.694.62ZM69.734 20.882l-7.196 1.107.24 16.021 3.836-.383.24-4.09 2.159-.24 1.677 3.365 4.076-.142-5.032-15.638Zm-1.727 9.236c-1.344.098-1.677-.674-1.918-1.442l3.12-.334c0-.006.142 1.677-1.202 1.776Z"/><path d="m63.5 22.324 6.474-.723-.24-.768-7.196 1.107.24 15.972h.334l.388-15.588Zm6.376 6.687-.765.05c-.098.482-.383 1.008-1.153 1.057-.382.05-.721-.05-.962-.142.24.433.672.767 1.585.767 1.344-.05 1.295-1.732 1.295-1.732Zm-.383 4.862-.142.049 1.344 2.696h.05l-1.252-2.745ZM3.644 27.186l2.688 17.029 1.104-.099-3.12-16.454-.672-.476ZM77.552 34.398l-.431.1-.05-.143 1.006-.192.05.142-.433.099.192 1.25-.192.049-.142-1.305Zm2.159.291c-.05-.192-.099-.433-.142-.575 0 .191-.05.334-.099.575l-.142.723h-.142l-.333-.624c-.099-.192-.191-.335-.24-.532.049.192.049.384.098.625l.049.575-.191.05-.142-1.398.24-.05.333.626c.099.142.142.29.24.433 0-.143.05-.291.05-.483l.142-.723.24-.05.334 1.349-.192.049-.103-.57Z"/></g><defs><clipPath id="ja"><path d="M0 0h80v58.696H0z"/></clipPath></defs></svg><svg viewBox="0 0 32 29" id="favorite" xmlns="http://www.w3.org/2000/svg"><path d="M29.665 2.777C28.087.987 25.897 0 23.5 0c-3.372 0-5.506 2.014-6.703 3.703-.311.438-.575.878-.797 1.292a12.245 12.245 0 0 0-.797-1.292C14.006 2.013 11.872 0 8.5 0 6.103 0 3.913.986 2.335 2.777.829 4.486 0 6.774 0 9.22c0 2.662 1.04 5.139 3.272 7.793 1.994 2.373 4.864 4.818 8.187 7.65a385.452 385.452 0 0 1 3.883 3.34l.04.035a.935.935 0 0 0 1.236 0l.04-.035c1.364-1.193 2.644-2.284 3.883-3.34 3.323-2.832 6.193-5.277 8.187-7.65C30.96 14.36 32 11.883 32 9.22c0-2.446-.83-4.734-2.335-6.443Zm-10.34 20.46c-1.068.909-2.167 1.845-3.325 2.852-1.158-1.007-2.257-1.943-3.325-2.853-6.503-5.542-10.8-9.203-10.8-14.016 0-1.99.663-3.837 1.866-5.203A6.258 6.258 0 0 1 8.5 1.875c2.57 0 4.232 1.584 5.174 2.912a11.113 11.113 0 0 1 1.435 2.854.937.937 0 0 0 1.782 0c.15-.461.591-1.662 1.436-2.854.94-1.328 2.602-2.912 5.173-2.912 1.851 0 3.541.76 4.759 2.142 1.203 1.366 1.866 3.213 1.866 5.203 0 4.813-4.297 8.474-10.8 14.016Z"/></svg><svg viewBox="0 0 32 23" id="icon-del" xmlns="http://www.w3.org/2000/svg"><path d="m31.917 14.34-1.62-2.479a3.866 3.866 0 0 0-3.25-1.75h-4.19v-2.41a2.671 2.671 0 0 0-2.669-2.668h-7.841A4.986 4.986 0 0 0 7.459.99 4.984 4.984 0 0 0 2.48 5.97c0 1.726.884 3.249 2.222 4.142H.508a.508.508 0 1 0 0 1.016h5.08v1.016H3.554a.508.508 0 0 0 0 1.016h2.032v1.015H.508a.508.508 0 1 0 0 1.016h5.08v2.25a2.548 2.548 0 0 0-1.525 2.328v.502c0 .28.228.508.509.508h4.505a2.811 2.811 0 0 0 2.732 2.173c1.33 0 2.445-.93 2.733-2.173h9.773a2.812 2.812 0 0 0 2.733 2.173c1.329 0 2.444-.93 2.733-2.173h1.711c.28 0 .508-.227.508-.508v-5.654a.508.508 0 0 0-.083-.278ZM3.497 5.97a3.968 3.968 0 0 1 3.962-3.963 3.967 3.967 0 0 1 3.963 3.963 3.967 3.967 0 0 1-3.963 3.963A3.968 3.968 0 0 1 3.496 5.97Zm3.106 9.221H7.62a.508.508 0 1 0 0-1.016H6.603V13.16h3.556a.508.508 0 1 0 0-1.016H6.603v-1.016h6.603a.508.508 0 0 0 0-1.016h-2.99a4.976 4.976 0 0 0 2.218-4.064h7.755c.91 0 1.652.742 1.652 1.653v9.522H6.603v-2.031Zm15.238 4.572H14.59a2.797 2.797 0 0 0-.722-1.524h7.974v1.524ZM6.61 18.239h3.142c-.382.413-.642.94-.721 1.524H5.079a1.532 1.532 0 0 1 1.53-1.524Zm5.2 3.697a1.794 1.794 0 0 1-1.793-1.792c0-.988.805-1.792 1.792-1.792.989 0 1.793.804 1.793 1.792s-.804 1.792-1.793 1.792Zm15.238 0a1.794 1.794 0 0 1-1.792-1.792c0-.988.804-1.792 1.792-1.792s1.792.804 1.792 1.792-.804 1.792-1.792 1.792Zm3.936-2.173h-1.157a2.81 2.81 0 0 0-2.78-2.427 2.81 2.81 0 0 0-2.779 2.427h-1.41v-8.635h4.188c.976 0 1.874.482 2.401 1.288l1.537 2.352v4.995Z"/><path d="M27.878 20.144a.83.83 0 1 1-1.661 0 .83.83 0 0 1 1.662 0ZM12.64 20.144a.83.83 0 1 1-1.661 0 .83.83 0 0 1 1.661 0ZM8.127 5.97V3.748a.508.508 0 1 0-1.016 0v2.056L6.074 7.226a.507.507 0 1 0 .821.598L8.03 6.27a.508.508 0 0 0 .097-.3ZM26.876 11.636h-.971a.508.508 0 0 0-.508.508v3.555c0 .281.227.508.508.508h3.418a.874.874 0 0 0 .764-.44.872.872 0 0 0 .003-.88l-1.187-2.075a2.34 2.34 0 0 0-2.027-1.176Zm-.463 3.556v-2.54h.463c.473 0 .911.254 1.145.664l1.072 1.875h-2.68Z"/></svg><svg viewBox="0 0 23 23" id="icon-tel" xmlns="http://www.w3.org/2000/svg"><path d="m21.463 16.589-3.194-3.196a2.276 2.276 0 0 0-1.617-.662c-.64 0-1.242.252-1.698.708l-1.244 1.243c-.966-.537-2.25-1.275-3.583-2.609-1.332-1.332-2.07-2.612-2.61-3.583l1.244-1.244c.926-.927.945-2.415.043-3.316L5.61.737A2.266 2.266 0 0 0 3.993.072 2.39 2.39 0 0 0 2.324.75C2.05.97.674 2.186.161 4.69c-.718 3.507.932 6.882 5.695 11.648 5.322 5.32 9.865 5.733 11.13 5.733.264 0 .423-.017.465-.021 2.482-.291 3.37-1.393 4.02-2.198.84-1.043.837-2.416-.008-3.264Zm-1.06 2.403c-.61.756-1.186 1.47-3.111 1.697-.001 0-.107.011-.306.011-1.132 0-5.211-.384-10.16-5.331C2.433 10.974.891 7.96 1.504 4.966c.448-2.185 1.635-3.114 1.682-3.15l.04-.03.036-.036a1.03 1.03 0 0 1 .73-.307c.25 0 .479.093.648.263L7.834 4.9c.368.367.348.985-.043 1.377L6.384 7.683l-.023.024c-.367.404-.324.95-.122 1.306.583 1.052 1.382 2.493 2.918 4.03 1.532 1.531 2.97 2.33 4.02 2.911.104.06.321.158.593.158.32 0 .615-.136.832-.383l1.321-1.32c.197-.198.456-.306.728-.306.25 0 .48.093.649.261l3.192 3.193c.405.407.238 1.03-.09 1.435ZM13.388 3.432c1.178.135 2.566.849 3.534 1.818.978.977 1.693 2.379 1.822 3.57a.686.686 0 1 0 1.364-.148c-.164-1.506-1.013-3.189-2.216-4.392-1.192-1.192-2.858-2.04-4.347-2.21a.686.686 0 1 0-.157 1.362ZM12.748 6.304c.637.073 1.519.546 2.096 1.123.583.583 1.056 1.473 1.126 2.117a.686.686 0 1 0 1.363-.147c-.119-1.1-.849-2.269-1.52-2.94-.664-.664-1.821-1.39-2.909-1.516a.685.685 0 1 0-.156 1.363Z"/></svg><svg viewBox="0 0 27 27" id="instagram" xmlns="http://www.w3.org/2000/svg"><path d="M13.499 8.3a5.202 5.202 0 1 0 0 10.403 5.202 5.202 0 0 0 0-10.404Zm0 8.58a3.38 3.38 0 1 1 0-6.76 3.38 3.38 0 0 1 0 6.76ZM18.907 9.32a1.213 1.213 0 1 0 0-2.425 1.213 1.213 0 0 0 0 2.426Z"/><path d="M23.1 6.875a5.18 5.18 0 0 0-2.963-2.96 7.432 7.432 0 0 0-2.459-.473c-1.083-.048-1.427-.061-4.174-.061-2.747 0-3.1 0-4.174.06-.84.017-1.67.177-2.457.473a5.175 5.175 0 0 0-2.962 2.961 7.408 7.408 0 0 0-.471 2.46c-.048 1.082-.063 1.425-.063 4.173 0 2.747 0 3.097.063 4.174a7.42 7.42 0 0 0 .471 2.46 5.186 5.186 0 0 0 2.964 2.961 7.406 7.406 0 0 0 2.458.506c1.083.048 1.426.062 4.174.062 2.747 0 3.099 0 4.173-.061a7.443 7.443 0 0 0 2.46-.472 5.19 5.19 0 0 0 2.962-2.962 7.408 7.408 0 0 0 .471-2.46c.048-1.082.063-1.425.063-4.173s0-3.097-.063-4.174a7.404 7.404 0 0 0-.474-2.494ZM21.73 17.6a5.674 5.674 0 0 1-.35 1.899 3.36 3.36 0 0 1-1.927 1.924 5.61 5.61 0 0 1-1.878.35c-1.07.05-1.37.062-4.111.062-2.743 0-3.023 0-4.112-.062a5.58 5.58 0 0 1-1.878-.35 3.359 3.359 0 0 1-1.934-1.924 5.715 5.715 0 0 1-.35-1.878c-.048-1.069-.06-1.37-.06-4.11 0-2.742 0-3.022.06-4.113.008-.648.126-1.29.35-1.898a3.36 3.36 0 0 1 1.934-1.926 5.636 5.636 0 0 1 1.878-.35c1.07-.048 1.37-.061 4.112-.061 2.741 0 3.023 0 4.11.062a5.58 5.58 0 0 1 1.88.35 3.366 3.366 0 0 1 1.925 1.925c.221.602.34 1.237.35 1.878.049 1.07.06 1.37.06 4.112 0 2.74 0 3.035-.048 4.11h-.012Z"/></svg><svg viewBox="0 0 20 20" id="lupa" xmlns="http://www.w3.org/2000/svg"><path d="M8.242 16.472C3.697 16.472 0 12.777 0 8.236S3.697 0 8.242 0c4.545 0 8.242 3.695 8.242 8.236s-3.697 8.236-8.242 8.236Zm0-14.91c-3.683 0-6.68 2.994-6.68 6.674s2.997 6.675 6.68 6.675 6.68-2.995 6.68-6.675c0-3.68-2.997-6.675-6.68-6.675Zm11.53 18.21a.78.78 0 0 0 0-1.105l-3.497-3.493a.782.782 0 0 0-1.105 1.104l3.496 3.493a.779.779 0 0 0 1.105 0Z"/></svg><svg viewBox="0 0 80 31" id="pepsi" xmlns="http://www.w3.org/2000/svg"><g clip-path="url(#pa)"><path d="M15.226 30.337C6.906 30.337.139 23.564.139 15.24c0-8.326 6.768-15.1 15.087-15.1 8.318 0 15.086 6.774 15.086 15.1 0 8.325-6.768 15.098-15.086 15.098Z"/><path d="M15.226.278c8.255 0 14.948 6.698 14.948 14.96 0 8.263-6.693 14.96-14.948 14.96-8.256 0-14.949-6.697-14.949-14.96C.277 6.976 6.97.278 15.226.278Zm0-.278C6.83 0 0 6.836 0 15.238c0 8.403 6.83 15.238 15.226 15.238 8.395 0 15.225-6.836 15.225-15.237C30.451 6.835 23.621 0 15.226 0ZM79.72 9.102c.168-.196.28-.42.28-.699a1.138 1.138 0 0 0-.28-.756 1.015 1.015 0 0 0-.728-.309c-.28 0-.503.112-.728.309-.195.196-.28.448-.28.756 0 .28.085.503.28.7.225.195.449.28.728.28.28 0 .531-.085.728-.28Zm.057 10.304v-9.044h-1.512l.028 9.044h1.484Zm-3.5-8.595-.251-.113c-.672-.392-1.484-.588-2.463-.588-1.064 0-1.931.252-2.575.756-.336.252-.56.504-.728.84a1.968 1.968 0 0 0-.252.98c0 .616.28 1.12.785 1.568.475.42 1.174.756 2.098 1.036.783.252 1.315.504 1.65.756.281.28.45.588.45.98 0 .42-.225.756-.617 1.036-.392.224-.953.364-1.651.364-.756 0-1.511-.196-2.295-.56l-.196-.14-.644 1.176.225.112c.867.42 1.82.615 2.854.615 1.12 0 2.044-.224 2.771-.727.364-.225.616-.532.812-.84.195-.364.28-.756.28-1.148v-.029c0-.672-.28-1.26-.812-1.735-.447-.392-1.175-.728-2.127-1.008-.728-.253-1.26-.505-1.568-.7-.335-.253-.475-.532-.475-.84 0-.365.14-.644.448-.896.336-.224.783-.365 1.37-.365.813 0 1.484.14 2.016.477l.196.14.7-1.147Zm-9.123.671c-1.036-.896-2.323-1.371-3.807-1.371-1.456 0-2.659.447-3.638 1.315-1.092.98-1.651 2.324-1.651 4.088v7.028h1.454v-4.536a4.57 4.57 0 0 0 1.68 1.177c.672.307 1.4.447 2.184.447 1.483 0 2.742-.447 3.778-1.4 1.064-.924 1.594-2.044 1.594-3.36 0-1.344-.53-2.463-1.594-3.388Zm-3.807-.112c1.092 0 2.043.337 2.77 1.008.757.672 1.148 1.511 1.148 2.52 0 .952-.336 1.736-1.007 2.408-.728.7-1.707 1.064-2.883 1.064s-2.128-.364-2.883-1.064c-.7-.7-1.035-1.484-1.035-2.407 0-.925.336-1.737 1.035-2.41.728-.727 1.68-1.119 2.855-1.119Zm-7.613.56c-.979-1.232-2.378-1.82-4.254-1.82-1.4 0-2.604.392-3.639 1.232-1.119.868-1.678 2.044-1.678 3.5 0 .812.223 1.624.699 2.38.42.728 1.064 1.316 1.931 1.764.868.42 1.791.616 2.799.616.952 0 1.847-.196 2.715-.616.867-.448 1.51-1.036 1.93-1.764l.28-.476h-1.622c-.337.476-.813.868-1.428 1.176a4.337 4.337 0 0 1-1.931.448c-.896 0-1.651-.225-2.323-.672a3.687 3.687 0 0 1-1.4-1.848 7.624 7.624 0 0 1 2.856-.56l1.51.167 2.352.225c.727 0 1.344-.113 1.903-.28.224-.084.364-.196.42-.337.084-.111.084-.307.029-.532-.17-1.007-.533-1.874-1.149-2.602Zm-.391 2.297.028.056-.812.112-1.763-.168-2.463-.197h-.42a8.189 8.189 0 0 0-2.211.448c.111-1.036.616-1.848 1.455-2.436.7-.448 1.484-.7 2.323-.7 1.315 0 2.323.42 3.079 1.26.392.505.671 1.036.784 1.625ZM39.641 10.11c-1.428 0-2.66.448-3.639 1.316-1.091.98-1.623 2.324-1.623 4.088l-.028 7.027h1.511l-.028-4.535a4.69 4.69 0 0 0 1.652 1.176c.7.308 1.427.447 2.21.447 1.484 0 2.744-.447 3.78-1.4 1.063-.924 1.566-2.044 1.566-3.36 0-1.344-.503-2.463-1.54-3.387-1.062-.896-2.322-1.372-3.861-1.372Zm-2.855 2.38c.756-.728 1.68-1.12 2.855-1.12 1.12 0 2.043.337 2.798 1.008.757.672 1.12 1.511 1.12 2.52 0 .952-.336 1.736-.98 2.408-.727.7-1.679 1.064-2.91 1.064-1.148 0-2.127-.364-2.883-1.064-.672-.7-1.008-1.484-1.008-2.407 0-.925.336-1.736 1.008-2.409Z"/><path d="M23.773 3.902a3.67 3.67 0 0 1-.365-.316 14.157 14.157 0 0 0-8.182-2.59C7.366.996.996 7.372.996 15.238a14.193 14.193 0 0 0 2.816 8.506c4.762-1.407 8.916-3.854 12.477-7.392 3.556-3.52 6.054-7.686 7.484-12.45Z"/><path d="M15.226 29.48c7.858 0 14.23-6.377 14.23-14.242 0-2.785-.8-5.38-2.18-7.574a.768.768 0 0 1-.096-.118c.29.956.436 1.949.435 2.948a9.922 9.922 0 0 1-1.107 4.578 10.358 10.358 0 0 1-2.983 3.457c-.995.734-2.189 1.356-3.594 1.866-1.118.41-2.573.833-4.376 1.243l-5.197 1.17a83.523 83.523 0 0 0-6.015 1.604 14.188 14.188 0 0 0 10.883 5.068Z"/></g><defs><clipPath id="pa"><path d="M0 0h80v30.476H0z"/></clipPath></defs></svg><svg viewBox="0 0 80 49" id="redbull" xmlns="http://www.w3.org/2000/svg"><g clip-path="url(#qa)"><path d="M38.956 25.281c.07.014.141.026.212.039l-.212-.039Zm.578.096c.082.013.165.023.247.034l-.247-.034Zm.611.073c.08.008.16.015.241.02l-.24-.02Zm.327.027.204.012-.204-.012Zm.303.017.241.01-.241-.01Zm.321.01c.18.005.36.005.54 0h-.54Zm.625 0 .251-.01-.25.01Zm.33-.014.216-.013-.216.013Zm.291-.019c.079-.006.158-.012.236-.02l-.236.02Zm.639-.064.18-.024-.18.024ZM54.018 5.16a2.275 2.275 0 0 0-.2-.095l.2.095Zm-.656-.235a2.57 2.57 0 0 0-.253-.039l.253.039Zm15.71 12.235-.046.006.045-.006Zm-58.644-3.555a2.411 2.411 0 0 1-.644-.972c-.107-.31-.247-.697-.247-1.026a3.543 3.543 0 0 1 1.81-3.097c.426-.232.583-.39.648-.472a.307.307 0 0 0-.098-.025c-1.273 0-1.925-.493-2.245-.91-.304-.391-.459-.895-.459-1.446 0-.268.038-.549.113-.835.358-.59.699-.429.908-.126.133.189 1.043.833 2.166.935.817.077 1.257.476 1.486.794.264.369.365.813.365 1.19 0 .155-.017.3-.05.429-.124.498-.65.946-1.382 1.518l-.415.344c-.608.53-.943 1.121-.943 1.622a1.02 1.02 0 0 0 .128.492c.271.46 1.04.747 2.154.358.515-.178 1.506-.8 2.111-1.399.713-.708 1.663-.879 2.579-.95.794-.06 1.283-.255 1.627-.64 1.017-1.144 1.996-1.304 2.912-1.372.35-.027.37-.052.415-.114.505-.67 1.024-1.025 1.49-1.232.354-.157.678-.23.944-.287l.322-.08.08-.027c.51-.164.905-.3 1.943-1l.044-.027.044-.028.044-.026.045-.025.044-.023h.002l.043-.023h.002l.043-.022h.002l.044-.02.002-.002.044-.018h.002l.044-.019h.003l.044-.017.002-.001.044-.016.046-.015h.003l.044-.015h.003l.044-.013.003-.001.044-.012.003-.001.044-.01.004-.001.043-.01.004-.001.044-.01h.004l.044-.008h.004l.044-.008h.003l.044-.007h.004l.044-.006h.004l.043-.006h.005l.043-.004h.005l.043-.003h.005l.042-.003h.005l.043-.002.048-.002h.153l.09.005.042.002h.006l.04.004h.007l.041.004h.006l.041.005h.007l.04.005.007.001.04.005.007.001.04.006.006.001.04.007.007.001.04.007.006.001.04.007.006.002c.062.011.123.025.183.04l.038.01.007.001c.06.016.12.032.179.05l.035.01.008.003c.117.037.23.078.339.122l.03.012.04.017A12.778 12.778 0 0 1 40.78.014a13.404 13.404 0 0 1 1.172 0h.001A12.785 12.785 0 0 1 51.59 5.09a3.883 3.883 0 0 1 1-.21l.01-.001.033-.002.034-.002H52.685l.033-.002H52.897l.035.002h.007l.035.001h.008l.035.003h.006l.036.004h.007l.035.004h.006c.085.009.17.022.254.039l.037.007.005.002.036.008.005.001.037.01.005.001.038.01.004.001.038.01.004.002.037.011.004.002.038.012.004.001.04.014.04.014.002.001.038.015.002.001.04.016h.002c.067.03.134.06.2.096h.001l.04.022.039.022.04.024.038.025.04.025c.714.485 1.127.698 1.48.838.158.063.305.11.462.16l.082.029.325.08c.177.038.378.082.596.154.547.177 1.2.521 1.833 1.365.046.061.066.086.418.113.915.068 1.893.229 2.914 1.372.342.386.828.58 1.622.64.92.072 1.868.242 2.58.95.605.599 1.595 1.221 2.112 1.4 1.114.388 1.885.1 2.15-.358a.922.922 0 0 0 .134-.493c0-.5-.335-1.091-.942-1.622l-.075-.063-.344-.28c-.73-.572-1.256-1.021-1.383-1.519a2.105 2.105 0 0 1 .315-1.619c.23-.318.675-.716 1.487-.794 1.128-.102 2.035-.746 2.167-.935.212-.302.55-.465.907.126.075.287.113.567.113.835 0 .554-.155 1.055-.458 1.446-.322.417-.973.91-2.247.91a.3.3 0 0 0-.096.025c.063.082.22.241.646.472a3.546 3.546 0 0 1 1.812 3.097c0 .329-.137.716-.248 1.027a2.444 2.444 0 0 1-.641.971c-.527.488-1.404.871-2.866.784a7.977 7.977 0 0 1-.46-.042c-.038.736-.24 1.61-.525 2.05-.086.14-.103.232-.103.278l.002.038c.009.003.648.38.648.38l.103.051s.06.029.068.035c.01-.003.22-.013.22-.013l.043-.006h.004c.4-.038 1.01-.233 1.27.49.068.192.11.359.148.506.08.303.147.528.413.732 0 0 .131-.113.28-.245a10.5 10.5 0 0 0 .339-.311c.185-.19.527-.093.774 0 .25.094.558.308.776.433.22.122.341.278.405.465.066.185.218.308.45.431.226.127.548.536.548 1.086 0 .085.01.157.033.234.016.05.039.103.07.163.313.632.061.95-.12 1.084-.245.183-.677.258-1.082.192l.003.104-.592-.079c-.23-.029-.532.03-.713.067l-.042.012a1.228 1.228 0 0 1-1.316-.618c-.158-.276-.404-.533-.525-.604a2.088 2.088 0 0 1-.775.079 1.855 1.855 0 0 1-1.009-.44 2.698 2.698 0 0 1-.177-.162 1.985 1.985 0 0 0-1.646-.564l-.259.046c-.533.096-1.2.219-1.816-.156a4.919 4.919 0 0 0-.59-.28c-.56-.243-1.138-.493-1.217-1.021-.013-.094-.115-.266-.199-.403a3.357 3.357 0 0 1-.216-.395 1.144 1.144 0 0 1-.107-.43 1.89 1.89 0 0 1-.76.037l-.243-.037c-.41-.07-1.266-.21-1.538-.11-.544.194-2.253.289-2.721.182l-.335-.072a4.1 4.1 0 0 1-.514.445c.343.019.645-.023.852.03l.43.113c.138-.04.474-.036.665-.019l.505.038.575.055c.277.056.571.175.521.717a1 1 0 0 1-.254.542c-.078.085-.378.52-.444.656l-.022.043c-.117.249-.29.477-.796.477-.064 0-.128.002-.192.008a1.28 1.28 0 0 1-.057.117c-.114.258-.278.617-.593.825l-.084.06c-.252.18-.672.475-1.315.242l-.221-.078c-.561-.202-1.409-.504-1.837-.738l-.06-.032c-.398-.218-.487-.262-.632-.241l-.08.012c-.306.043-.882.12-1.28-.539l-.037-.057a12.797 12.797 0 0 1-8.005 5.04l-.014.004c-.112.02-.224.039-.337.057l-.042.006-.154.023-.18.024-.11.014-.173.018-.12.013-.235.02-.075.005c-.072.005-.143.01-.216.013l-.08.004-.25.01-.086.001c-.18.005-.36.005-.539 0l-.08-.001-.242-.01-.098-.005-.204-.012-.086-.006-.24-.02-.12-.012-.157-.017-.088-.01a7.934 7.934 0 0 1-.247-.035l-.1-.014-.175-.028-.091-.015-.212-.038-.153-.03-.078-.017c-.104-.022-.209-.045-.313-.07l-.027-.006-.163-.04-.084-.021a14.973 14.973 0 0 1-.29-.079l-.035-.01a12.8 12.8 0 0 1-6.983-5.028l-.218.33c-.395.66-.97.582-1.28.54l-.08-.013c-.144-.02-.236.023-.63.24l-.064.034c-.426.233-1.271.535-1.835.737l-.222.079c-.642.233-1.064-.064-1.311-.243l-.087-.06c-.314-.207-.477-.567-.593-.825 0 0-.038-.076-.056-.117a1.853 1.853 0 0 0-.193-.007c-.5 0-.68-.229-.794-.478l-.02-.042a5.126 5.126 0 0 0-.448-.657.986.986 0 0 1-.253-.542c-.052-.541.246-.66.521-.716l.576-.055.505-.038c.188-.017.524-.022.661.018l.431-.113c.206-.053.51-.01.85-.03a4.885 4.885 0 0 1-.512-.445l-.335.072c-.47.107-2.176.013-2.716-.182-.274-.1-1.13.04-1.54.11l-.247.038a1.885 1.885 0 0 1-.755-.038c-.013.309-.18.588-.324.825-.084.137-.19.31-.202.403-.074.528-.659.778-1.216 1.021a4.977 4.977 0 0 0-.589.28c-.611.375-1.28.253-1.816.156l-.26-.045a1.986 1.986 0 0 0-1.645.563c-.801.798-1.598.622-1.961.523-.12.071-.368.328-.525.605a1.23 1.23 0 0 1-1.317.617l-.044-.011c-.179-.038-.477-.096-.706-.068l-.596.08.007-.105c-.408.066-.84-.01-1.086-.192-.18-.134-.434-.452-.114-1.083a.818.818 0 0 0 .099-.397c0-.551.32-.96.544-1.087.235-.122.39-.245.453-.431a.81.81 0 0 1 .402-.465c.218-.124.528-.339.776-.433.248-.093.59-.189.777 0 .188.183.618.556.618.556.396-.305.358-.655.563-1.238.256-.723.869-.528 1.267-.49l.045.006s.215.01.221.013l.071-.035.1-.052.649-.38c.003-.007.003-.018.003-.037a.55.55 0 0 0-.103-.277c-.286-.441-.488-1.315-.524-2.05a7.885 7.885 0 0 1-.3.03c-1.557.124-2.482-.268-3.023-.774Z"/><path d="M14.259 13.812s-.13 1.252.436 2.355c0 0 .419.592-.016.972l-.866.502s-.117.087-.503.057c0 0-.534-.132-.712.104 0 0-.155.452-.35.825 0 0-.394.903-1.046 1.193 0 0-.52.119-.678.568 0 0-.168.316-.504.33 0 0-.25.08-.416.636 0 0-.09.36-.086.636 0 0 .427-.056.706.044 0 0 .684.23.99-.333 0 0 .592-1.01 1.03-.858 0 0 .881.294 1.504-.347 0 0 .854-.931 2.061-.74 0 0 1.36.275 1.784-.038 0 0 .858-.447 1.18-.558 0 0 .393-.115.434-.545 0 0 .24-.605.413-.806l-.648-.007s-.588.985-1.586 1.282c0 0-.545.217-1.64.04 0 0-1.574-.355-2.955 1.133 0 0-.19.272-.459.163 0 0 .764-1.298 2.44-1.605 0 0 .548-.117 1.006-.043 0 0 2.257.067 3.304-2.15 0 0-.113-1.89.387-2.337 0 0 .193-.06.154.306 0 0-.343 1.98.302 2.363 0 0 .374.294 1.067.185 0 0 1.05-.25 1.904-.104 0 0 1.313.31 2.441.167 0 0-.293-.448-.235-.982 0 0 .162-.383.347-.137 0 0 .434 1.43 1.62 1.86 0 0 1.06.384 1.042 1.724 0 0-.162.184-1.567.682 0 0-.525.165-.694-.226 0 0-.677-1.446-1.267-1.402l-1.107.09s-.378.097-.1.399c0 0 .38.502.534.802 0 0 .045.257.402.202 0 0 .494-.244.772.673 0 0 .255.458.687.605 0 0 .404.134.783-.078 0 0 1.829-.67 2.147-.907 0 0 .396-.22.71-.114 0 0 .548.13.774-.302l.567-.874s.124-.215.107-.486c0 0 .051-.268-.176-.54 0 0-.214-.226-.247-.39l-.404-.947s-.164-.253-.344-.357l-.54.04s.372.946.644 1.331c0 0 .367.561.349.918 0 0-.024.25-.123.354 0 0-.125.199-.175.295 0 0-.163.354-.296.433 0 0-.23.135-.285.14 0 0-.1.028-.026-.15 0 0 .302-.634.282-.974 0 0 .059-.353-.192-.56 0 0-.588-.925-.672-1.202 0 0-.184-.37-.282-.433 0 0-.206-.27.126-.395 0 0 .825-.186.973-.287 0 0 .397-.12.655-.944 0 0 .355-.962.35-1.556 0 0 .696 1.339-.414 2.7 0 0 .878.258 1.242 0 0 0 1.094-.16 1.305-.218 0 0 .275-.067.118.128 0 0-.33.468-.358.775 0 0-.021.244-.222.387 0 0-.622.434-.676.85 0 0-.133.4.142.305 0 0 .372-.172.503.001 0 0 .039.018-.105.179 0 0-.373.324-.401.76 0 0 .069.501.201.663 0 0 .168.232.434.158 0 0 .07-.057.198-.018 0 0 .131 0 .475-.12 0 0 .52-.142.695-.203 0 0 .662-.237.99-.22 0 0 .212-.024.483.03 0 0 .829.094 1.381-.515 0 0 .42-.332.563-.01 0 0 1.009 1.35 2.641.995 0 0-1.299-.533-1.636-1.259 0 0-.044-.616-.725-1.47 0 0-.208-.285-.007-.358 0 0 .116-.087.37.166 0 0 .646.619.88 1.185 0 0 .802 1.21 1.959.803 0 0-.909-.35-1.335-1.001 0 0-.264-.882-1.15-1.538 0 0-.035-.991-.449-1.548 0 0-.21-.93-.268-1.148 0 0-.223-.818-.221-1.044 0 0 .074-1.067-.617-1.899 0 0-.462-.889-1.183-1.508 0 0-.547-.675-.954-1.088 0 0-.535-.626-1.703-1.443 0 0-.529-.383-.916-.795 0 0-2.06-1.479-3.548-.293 0 0-1.027.697-1.886.913 0 0-1.763.205-2.515 1.426 0 0-.065.225-.776.311 0 0-1.561-.188-2.71 1.344 0 0-.535.52-1.592.646 0 0-1.725-.176-2.848 1.143 0 0-2.833 2.464-4.522.866 0 0-.875-.826.125-2.323 0 0 .635-.764 1.718-1.562 0 0 .878-.617.476-1.577 0 0-.213-.927-1.53-.951 0 0-1.651-.318-2.32-1.15 0 0-.745 2.62 2.182 2.576 0 0 .763.112.497.716 0 0-.374.517-.876.705 0 0-.883.385-1.282 1.668 0 0-.892 2.245 1.284 3.111.837.289 1.804.204 2.666.054Zm-4.19 5.29a.534.534 0 0 1 .445-.117c.347.074.137.373.137.373-.14.262-.598.703-.598.703-.407.304-.73-.058-.73-.058-.301-.297.091-.44.091-.44.229-.092.656-.46.656-.46Zm-.872 1.404s.126.093.059.277c0 0-.323.882-.308 1.178 0 0-.715.128-.814-.224 0 0-.02-.136.097-.333 0 0 .121-.184.153-.52 0 0-.01-.846.539-.622.109.06.195.15.274.244Zm25.205-1.79c-.126-.004-.158-.05-.142-.188.084-.384.393-.55.393-.55.58-.345.65 0 .65 0 .106.617-.383.695-.383.695-.097.034-.518.043-.518.043Zm1.749-2.756c.01-.289.035-.932-.26-1.162-.109-.086-.54-.557-.54-.557-.065-.114-.115-.12-.115-.12-.09-.01-.204.197-.204.197-.306.59-.612.518-.612.518a.507.507 0 0 1 .07-.228c.148-.287.294-.574.44-.862.044-.102.085-.239.085-.239.296-.457.575-.109.575-.109.124.242.788 1.032.788 1.032a.701.701 0 0 1 .161.362c.154 1.081-.388 1.168-.388 1.168Zm-6.112-6.526c-.09-.163-.053-.329.038-.487.205-.314.397.029.397.029.71.985.186 2.461.186 2.461-.073-1.358-.62-2.003-.62-2.003Zm38.066 4.378s.13 1.252-.436 2.355c0 0-.42.592.016.972l.866.502s.116.087.503.057c0 0 .534-.132.712.104 0 0 .155.452.349.825 0 0 .395.903 1.047 1.193 0 0 .52.119.677.568 0 0 .169.316.504.33 0 0 .251.08.417.636 0 0 .09.36.086.636 0 0-.428-.056-.706.044 0 0-.685.23-.99-.333 0 0-.592-1.01-1.03-.858 0 0-.882.294-1.504-.347 0 0-.854-.931-2.062-.74 0 0-1.359.275-1.783-.038 0 0-.858-.447-1.18-.558 0 0-.394-.115-.434-.545 0 0-.24-.605-.413-.806l.648-.007s.587.985 1.585 1.282c0 0 .546.217 1.641.04 0 0 1.574-.355 2.955 1.133 0 0 .189.272.458.163 0 0-.763-1.298-2.44-1.605 0 0-.547-.117-1.005-.043 0 0-2.258.067-3.305-2.15 0 0 .114-1.89-.386-2.337 0 0-.193-.06-.155.306 0 0 .343 1.98-.301 2.363 0 0-.375.294-1.068.185 0 0-1.05-.25-1.904-.104 0 0-1.313.31-2.441.167 0 0 .293-.448.236-.982 0 0-.162-.383-.347-.137 0 0-.434 1.43-1.621 1.86 0 0-1.06.384-1.042 1.724 0 0 .162.184 1.567.682 0 0 .526.165.695-.226 0 0 .677-1.446 1.267-1.402l1.107.09s.378.097.1.399c0 0-.38.502-.535.802 0 0-.044.257-.4.202 0 0-.495-.244-.774.673 0 0-.255.458-.686.605 0 0-.404.134-.783-.078 0 0-1.829-.67-2.147-.907 0 0-.396-.22-.71-.114 0 0-.547.13-.773-.302l-.567-.874s-.125-.215-.108-.486c0 0-.051-.268.176-.54 0 0 .214-.226.248-.39l.404-.947s.164-.253.343-.357l.54.04s-.372.946-.644 1.331c0 0-.368.561-.349.918 0 0 .025.25.123.354 0 0 .125.199.175.295 0 0 .163.354.296.433 0 0 .23.135.285.14 0 0 .1.028.026-.15 0 0-.302-.634-.283-.974 0 0-.058-.353.192-.56 0 0 .588-.925.673-1.202 0 0 .184-.37.282-.433 0 0 .205-.27-.126-.395 0 0-.825-.186-.973-.287 0 0-.397-.12-.655-.944 0 0-.355-.962-.35-1.556 0 0-.696 1.339.414 2.7 0 0-.878.258-1.242 0 0 0-1.093-.16-1.305-.218 0 0-.275-.067-.118.128 0 0 .33.468.358.775 0 0 .02.244.222.387 0 0 .622.434.676.85 0 0 .133.4-.142.305 0 0-.372-.172-.503.001 0 0-.039.018.105.179 0 0 .373.324.4.76 0 0-.068.501-.2.663 0 0-.168.232-.434.158 0 0-.07-.057-.199-.018 0 0-.13 0-.474-.12 0 0-.521-.142-.695-.203 0 0-.663-.237-.99-.22 0 0-.213-.024-.484.03 0 0-.829.094-1.381-.515 0 0-.42-.332-.563-.01 0 0-1.009 1.35-2.641.995 0 0 1.3-.533 1.636-1.259 0 0 .044-.616.725-1.47 0 0 .208-.285.007-.358 0 0-.116-.087-.37.166 0 0-.645.619-.879 1.185 0 0-.803 1.21-1.96.803 0 0 .908-.35 1.335-1.001 0 0 .264-.882 1.151-1.538 0 0 .035-.991.448-1.548 0 0 .212-.93.268-1.148 0 0 .223-.818.221-1.044 0 0-.074-1.067.617-1.899 0 0 .462-.889 1.183-1.508 0 0 .547-.675.954-1.088 0 0 .536-.626 1.704-1.443 0 0 .528-.383.915-.795 0 0 2.06-1.479 3.548-.293 0 0 1.028.697 1.886.913 0 0 1.764.205 2.515 1.426 0 0 .065.225.775.311 0 0 1.562-.188 2.712 1.344 0 0 .534.52 1.592.646 0 0 1.723-.176 2.846 1.143 0 0 2.833 2.464 4.523.866 0 0 .874-.826-.126-2.323 0 0-.634-.764-1.717-1.562 0 0-.879-.617-.476-1.577 0 0 .213-.927 1.53-.951 0 0 1.651-.318 2.319-1.15 0 0 .746 2.62-2.181 2.576 0 0-.764.112-.497.716 0 0 .374.517.876.705 0 0 .883.385 1.282 1.668 0 0 .892 2.245-1.285 3.111-.836.289-1.803.204-2.665.054Zm4.189 5.29a.534.534 0 0 0-.444-.117c-.347.074-.137.373-.137.373.14.262.598.703.598.703.408.304.73-.058.73-.058.3-.297-.092-.44-.092-.44-.228-.092-.655-.46-.655-.46Zm.872 1.404s-.126.093-.058.277c0 0 .323.882.308 1.178 0 0 .715.128.814-.224 0 0 .019-.136-.098-.333 0 0-.12-.184-.152-.52 0 0 .01-.846-.539-.622-.11.06-.195.15-.275.244Zm-25.205-1.79c.126-.004.159-.05.143-.188a.867.867 0 0 0-.393-.55c-.58-.345-.65 0-.65 0-.106.617.383.695.383.695.097.034.517.043.517.043Zm-1.748-2.756c-.01-.289-.036-.932.26-1.162.11-.086.54-.557.54-.557.065-.114.115-.12.115-.12.088-.01.204.197.204.197.306.59.612.518.612.518.002-.108-.07-.228-.07-.228a96.94 96.94 0 0 1-.44-.862 2.663 2.663 0 0 1-.086-.239c-.296-.457-.574-.109-.574-.109-.125.242-.788 1.032-.788 1.032a.7.7 0 0 0-.162.362c-.153 1.081.39 1.168.39 1.168Zm6.111-6.526c.091-.163.054-.329-.038-.487-.205-.314-.396.029-.396.029-.71.985-.186 2.461-.186 2.461.072-1.358.62-2.003.62-2.003ZM.013 29.86v18.08h3.659V33.31h1.723s2.69-.12 2.69 2.322c0 2.443-2.388 2.382-2.388 2.382H4.82v4.161l3.66 5.766h4.292l-5.11-7.393s4.203-.362 4.203-4.916c0-4.552-3.175-5.772-7.407-5.772H.013ZM53.5 38.315s1.602-1.242 1.602-3.598-1.715-4.48-5.37-4.48h-6.119V47.94h7.538s5.402-.06 5.402-4.93c0-2.826-1.1-3.908-3.052-4.694Zm-2.948 6.543h-3.28V33.325h1.753s2.383-.179 2.383 1.894-1.895 1.89-1.895 1.89H48.42v3.108h2.13c.56 0 2.338.27 2.338 2.312s-2.337 2.33-2.337 2.33ZM76.57 29.504h3.417V47.94H76.57V29.504Zm-5.88 0h3.462V47.94H70.69V29.504ZM57.583 37.14h3.506v6.181s.122 2.082 2.087 2.082c1.965 0 1.936-2.082 1.936-2.082V37.17h3.536v6.364s.454 4.975-5.382 4.975c-5.835 0-5.683-4.372-5.683-5.156V37.14ZM34.33 29.504v8.36s-1.693-1.296-3.63-1.296c-1.933 0-5.199 1.357-5.199 5.638s2.782 5.91 5.17 5.91c2.39 0 3.72-1.568 3.72-1.568v1.393h3.446V29.504H34.33ZM31.671 45.1c-.183 0-2.45.03-2.45-2.743 0-2.775 2.479-2.865 2.479-2.865s2.782.09 2.782 2.804-2.63 2.804-2.812 2.804Zm-13.063-8.533c5.866 0 5.624 5.7 5.624 5.7v.903H16.28c0 1.297 1.088 2.413 2.57 2.413 1.481 0 2.237-1.417 2.237-1.417l2.812 1.386c-1.3 1.961-3.053 2.744-5.019 2.744-6.108 0-6.228-5.065-6.228-5.698 0-.634.09-6.03 5.956-6.03ZM16.34 41.09h4.355s-.182-2.05-2.147-2.05c-1.965 0-2.208 2.05-2.208 2.05Z"/></g><defs><clipPath id="qa"><path d="M0 0h80v48.508H0z"/></clipPath></defs></svg><svg viewBox="0 0 80 34" id="sprite" xmlns="http://www.w3.org/2000/svg"><path fill-rule="evenodd" clip-rule="evenodd" d="M54.136.003a5.914 5.914 0 0 0-2.307.644c-1.218.643-3.525 3.248-3.525 3.248-1.411 1.8.127 2.025.127 2.025 0 .032.032.032.065.032a9.996 9.996 0 0 0-.673.74c-.385.45-.546.836-.578 1.125v.29c.097.514.705.61.705.61 2.5.42 1.892 1.93 4.07 2.96.77.353 1.476.546 2.116.643 1.667.193 2.982-.386 3.879-.869 2.05-1.157 2.884-2.83 3.076-2.99.16-.16.898-1.415-.256-1.8.385-.515.641-.933.737-.997.097-.065.384-.547.384-.965 0-.418-.192-.804-.96-.9-1.571-.29-1.988-1.576-3.911-2.927-.994-.708-2.02-.9-2.949-.869Zm0 11.19c-1.762-.225-2.724-1.479-3.365-2.219-.673-.771-1.442-1.125-1.795-1.221-.352-.065-.384-.032-.257-.225.129-.194.802-.933.802-.933 1.634 2.347 3.558 3.022 4.615 3.248.481.096.77.064.77.064 1.955.386 4.712-1.511 4.712-1.511-.77.9-2.5 2.797-4.84 2.83-.225 0-.449 0-.642-.033ZM20.418 23.573l-3.911 9.742h7.308s-1.314-.675-.641-2.7c.705-2.026 1.378-3.891 1.378-3.891s.096-.194.257-.064c0 0 .48 1.125 2.788 1.06.192-.031.417-.031.609-.063 2.115-.193 4.263-1.19 5.48-4.116.29-.707.61-1.415.898-2.123 1.09-2.572 1.891-5.112.128-6.623-.032-.032-.096-.064-.128-.096-1.41-1.094-3.205-.997-6.379-.933-1.346 0-2.948.032-4.872-.064l-.897.16s1.378.837.737 2.637c-.255.739-1.441 3.794-2.755 7.074Zm57.245 3.44c.737-.224 1.378-.868 1.57-1.769.257-1.125-.384-1.865-1.314-1.865-.097 0-.16.033-.256.033a2.176 2.176 0 0 0-1.123.546c-.256.225-.48.547-.64.9l-.096.386c-.097.45-.033.869.096 1.158.16.257.352.482.64.579.193.064.385.096.61.096v.032c.175 0 .35-.033.513-.096Zm0-4.148c.128-.032.256-.032.384-.032 1.25 0 2.211.901 1.89 2.411a3.042 3.042 0 0 1-2.274 2.348c-.225.032-.417.065-.642.065-.16 0-.32-.033-.48-.033a3.73 3.73 0 0 1-.641-.224c-.642-.386-.994-1.126-.802-2.155.16-.611.45-1.125.802-1.51a3.03 3.03 0 0 1 .64-.483c.354-.194.738-.354 1.123-.387Zm0 3.505-.32-.932h-.257l-.225 1.092h-.544l.223-1.125.321-1.478h.961c.673 0 1.027.192.898.803-.096.483-.417.643-.769.675l.417 1.125h-.641l-.064-.16Zm0-1.994h.032c.224 0 .48.033.448.29-.063.29-.224.354-.48.354h-.481l.129-.644h.352ZM76.54 14.86c.385.74.225 1.543.16 1.993 0 .225-.063.515-.16.804a12.277 12.277 0 0 1-.64 1.704c-.29.708-.578 1.255-.578 1.255h-7.34c-.8 1.639-.513 3.954 2.116 3.826.128 0 .256 0 .384-.032 2.436-.225 4.103-1.576 4.103-1.576l-1.09 2.83s-.705 1.157-3.013 1.64c-.8.193-1.827.29-3.045.224-1.73-.063-2.916-.546-3.685-1.253-2.757-2.477-.385-7.717-.61-7.171.129-.322.32-.868.61-1.544.833-1.832 2.595-4.469 6.73-4.63h.674c2.563.065 4.006.547 4.743 1.158.322.257.513.515.641.772Zm-6.057 3.698h.865c.385-.065 1.795-2.637-.064-2.83a1.623 1.623 0 0 0-.801.129c-1.25.514-1.73 2.572-1.73 2.572-.033.13.127.13.127.13h1.603v-.001Zm-6.73-2.862h.416l.93-2.187h-2.244l.898-2.283 1.025-2.54h-1.987c-2.308 5.305-6.7 4.823-6.7 4.823l-.897 2.187h1.603l-3.301 8.231-1.443 3.57h7.692c-2.019-.902-1.378-2.573-1.378-2.573s2.276-5.917 3.654-9.228h1.731Zm-10.257 1.35c-1.38 3.377-3.11 7.878-3.11 7.878s-.577 1.575 1.09 2.572h-7.692l2.244-5.562 3.333-8.329h5.577c-.257.515-.802 1.866-1.442 3.441Zm-7.469.74c-.48-.322-1.379-.61-2.692.257-1.73 1.157-3.333 6.881-3.333 6.881s-.353 1.866 1.09 2.573H33.43s.48-1.19 1.154-2.83c1.282-3.215 3.237-8.039 3.27-8.2.063-.289.993-1.575-.45-2.733h5.417l-.481 1.415s.032.225.224 0c.16-.16 1.155-1.35 3.462-1.768.61-.13 1.347-.194 2.212-.13l-1.89 4.824s-.098-.16-.322-.289Zm-17.821 5.884c-.417.772-.898 1.19-1.666 1.061-1.539-.257 1.09-5.176 1.57-6.752 0 0 .032-.13.096-.29.225-.546.738-1.607 1.475-1.253.93.418.897.964-.096 3.6-.514 1.416-.898 2.766-1.379 3.634Zm-3.91-16.077L21.7 12.48s-.065-2.348-1.282-3.73c-.61-.676-1.443-1.126-2.693-.997-3.782.354-2.788 3.858-2.34 4.984 0 0 3.206 8.007 3.237 8.585.064.579 1.186 3.344-1.538 6.462 0 0-4.071 5.788-12.95 2.766 0 0-3.205-1.094-4.134-4.34l3.686-4.695s-1.025 6.141 4.744 5.659c5.417-.483 1.699-7.653 1.378-8.521-.545-1.576-3.846-8.907-.032-12.283 2.725-2.444 7.244-3.151 10.642-1.993 1.698.578 3.14 1.64 3.878 3.215Z"/></svg><svg viewBox="0 0 16 16" id="star" xmlns="http://www.w3.org/2000/svg"><g clip-path="url(#sa)"><path d="M.023 6.164a.469.469 0 0 1 .378-.319l4.96-.72L7.58.63a.469.469 0 0 1 .84 0l2.219 4.495 4.96.72a.469.469 0 0 1 .26.8l-3.59 3.498.848 4.94a.469.469 0 0 1-.68.495L8 13.245l-4.436 2.333a.469.469 0 0 1-.68-.495l.847-4.94-3.59-3.498a.469.469 0 0 1-.118-.48Z"/></g><defs><clipPath id="sa"><path transform="matrix(-1 0 0 1 16 0)" d="M0 0h16v16H0z"/></clipPath></defs></svg><svg viewBox="0 0 33 32" id="telegram" xmlns="http://www.w3.org/2000/svg"><g clip-path="url(#ta)"><path d="m13.328 20.241-.526 7.446c.753 0 1.078-.326 1.469-.716l3.526-3.393 7.306 5.387c1.34.753 2.284.357 2.646-1.24l4.796-22.63.001-.002c.425-1.994-.716-2.774-2.022-2.285L2.334 13.676c-1.924.752-1.895 1.832-.327 2.322l7.207 2.257 16.74-10.548c.788-.526 1.505-.235.916.29L13.328 20.241Z"/></g><defs><clipPath id="ta"><path transform="translate(.86)" d="M0 0h31.778v32H0z"/></clipPath></defs></svg><svg viewBox="0 0 25 32" id="user-link" xmlns="http://www.w3.org/2000/svg"><path d="M22.678 19.943a12.5 12.5 0 0 0-4.085-3.779 9.242 9.242 0 0 0 3.093-6.902C21.686 4.155 17.531 0 12.424 0S3.162 4.155 3.162 9.262a9.242 9.242 0 0 0 3.092 6.902 12.5 12.5 0 0 0-4.085 3.779A12.322 12.322 0 0 0 0 26.936V32h24.848v-5.064c0-2.505-.75-4.923-2.17-6.993ZM5.101 9.263c0-4.039 3.285-7.324 7.323-7.324s7.323 3.285 7.323 7.323-3.285 7.323-7.323 7.323S5.1 13.3 5.1 9.262ZM1.939 30.06v-3.125c0-4.109 2.38-7.794 6.101-9.516a9.205 9.205 0 0 0 4.384 1.104c1.585 0 3.078-.4 4.383-1.104 3.721 1.722 6.101 5.407 6.101 9.516v3.125H1.94Z"/></svg><svg viewBox="0 0 32 32" id="youtube" xmlns="http://www.w3.org/2000/svg"><g clip-path="url(#va)"><path d="m31.24 7.905.039.262c-.384-1.372-1.42-2.43-2.738-2.816l-.028-.007c-2.478-.677-12.447-.677-12.447-.677s-9.944-.014-12.446.677A4.045 4.045 0 0 0 .862 8.14l-.007.028c-.925 4.868-.932 10.717.041 15.93l-.04-.265c.383 1.372 1.42 2.43 2.737 2.816l.028.007c2.475.678 12.447.678 12.447.678s9.942 0 12.446-.678a4.044 4.044 0 0 0 2.76-2.795l.006-.028c.421-2.264.662-4.87.662-7.53l-.001-.295.001-.307a43.3 43.3 0 0 0-.703-7.795ZM12.885 20.868v-9.724l8.297 4.87-8.297 4.854Z"/></g><defs><clipPath id="va"><path transform="translate(.164)" d="M0 0h31.778v32H0z"/></clipPath></defs></svg></svg>