<svg width="92" height="64" viewBox="0 0 92 64" fill="none" xmlns="http://www.w3.org/2000/svg">
<path d="M40.6226 43.508H34.5312L38.3412 21.5254H44.4322L40.6226 43.508Z" fill="#15195A"/>
<path d="M62.704 22.0628C61.5025 21.6181 59.5969 21.127 57.2405 21.127C51.2251 21.127 46.9892 24.1202 46.9632 28.3996C46.9132 31.5569 49.996 33.3106 52.3017 34.3633C54.6584 35.4391 55.4595 36.1412 55.4595 37.1001C55.4355 38.5728 53.5552 39.2516 51.8014 39.2516C49.3695 39.2516 48.0664 38.9017 46.0861 38.0823L45.284 37.7311L44.4316 42.6657C45.8603 43.2731 48.4924 43.812 51.2251 43.8357C57.6166 43.8357 61.7777 40.8888 61.827 36.3284C61.8513 33.8259 60.2234 31.9085 56.7139 30.3416C54.5834 29.3358 53.2787 28.6576 53.2787 27.6284C53.3037 26.6929 54.3822 25.7346 56.7872 25.7346C58.7675 25.6877 60.2224 26.1318 61.3246 26.5763L61.8756 26.8097L62.704 22.0628Z" fill="#15195A"/>
<path fill-rule="evenodd" clip-rule="evenodd" d="M73.6076 21.5254H78.3193L83.2335 43.5077H77.5935C77.5935 43.5077 77.0415 40.982 76.8666 40.2102H69.0459C68.8197 40.7945 67.7674 43.5077 67.7674 43.5077H61.376L70.4239 23.3493C71.0508 21.9226 72.1547 21.5254 73.6076 21.5254ZM73.2322 29.5698C73.2322 29.5698 71.3019 34.4575 70.8003 35.7204H75.8633C75.6129 34.6213 74.4593 29.3594 74.4593 29.3594L74.0336 27.4653C73.8544 27.953 73.5951 28.6236 73.4203 29.0759C73.3017 29.3825 73.222 29.5888 73.2322 29.5698Z" fill="#15195A"/>
<path fill-rule="evenodd" clip-rule="evenodd" d="M23.4781 36.5154L29.4435 21.5254H35.8846L26.3101 43.4847H19.8687L14.4394 24.3837C12.5662 23.3618 10.4283 22.5399 8.03809 21.9696L8.13835 21.5254H17.9387C19.2671 21.5717 20.345 21.9693 20.6958 23.3732L22.8257 33.4737C22.8259 33.4742 22.8261 33.4747 22.8262 33.4753L23.4781 36.5154Z" fill="#15195A"/>
</svg>
