<svg width="21" height="23" viewBox="0 0 21 23" fill="none" xmlns="http://www.w3.org/2000/svg">
<path d="M10.5 1.4375C11.4531 1.4375 12.3672 1.81613 13.0412 2.49009C13.7151 3.16404 14.0938 4.07813 14.0938 5.03125V5.75H6.90625V5.03125C6.90625 4.07813 7.28488 3.16404 7.95884 2.49009C8.63279 1.81613 9.54688 1.4375 10.5 1.4375ZM15.5312 5.75V5.03125C15.5312 3.69688 15.0012 2.41716 14.0576 1.47362C13.1141 0.530077 11.8344 0 10.5 0C9.16563 0 7.88591 0.530077 6.94237 1.47362C5.99883 2.41716 5.46875 3.69688 5.46875 5.03125V5.75H0.4375V20.125C0.4375 20.8875 0.740401 21.6188 1.27957 22.1579C1.81874 22.6971 2.55 23 3.3125 23H17.6875C18.45 23 19.1813 22.6971 19.7204 22.1579C20.2596 21.6188 20.5625 20.8875 20.5625 20.125V5.75H15.5312ZM1.875 7.1875H19.125V20.125C19.125 20.5062 18.9735 20.8719 18.704 21.1415C18.4344 21.411 18.0687 21.5625 17.6875 21.5625H3.3125C2.93125 21.5625 2.56562 21.411 2.29603 21.1415C2.02645 20.8719 1.875 20.5062 1.875 20.125V7.1875Z" fill="#80233A"/>
<path d="M1.875 7.1875H19.125V20.125C19.125 20.5062 18.9735 20.8719 18.704 21.1415C18.4344 21.411 18.0687 21.5625 17.6875 21.5625H3.3125C2.93125 21.5625 2.56562 21.411 2.29603 21.1415C2.02645 20.8719 1.875 20.5062 1.875 20.125V7.1875Z" fill="#80233A"/>
</svg>
