<svg width="20" height="14" viewBox="0 0 20 14" fill="none" xmlns="http://www.w3.org/2000/svg">
<path d="M18.25 0.125H1.75C1.38533 0.125 1.03559 0.269866 0.777728 0.527728C0.519866 0.785591 0.375 1.13533 0.375 1.5V12.5C0.375 12.8647 0.519866 13.2144 0.777728 13.4723C1.03559 13.7301 1.38533 13.875 1.75 13.875H18.25C18.6147 13.875 18.9644 13.7301 19.2223 13.4723C19.4801 13.2144 19.625 12.8647 19.625 12.5V1.5C19.625 1.13533 19.4801 0.785591 19.2223 0.527728C18.9644 0.269866 18.6147 0.125 18.25 0.125ZM16.7375 1.5L10 6.16125L3.2625 1.5H16.7375ZM1.75 12.5V2.12562L9.60813 7.56375C9.72321 7.64359 9.85993 7.68637 10 7.68637C10.1401 7.68637 10.2768 7.64359 10.3919 7.56375L18.25 2.12562V12.5H1.75Z" fill="black"/>
</svg>
