<svg width="27" height="27" viewBox="0 0 27 27" fill="none" xmlns="http://www.w3.org/2000/svg">
<path d="M13.4989 8.29932C12.1192 8.29932 10.7961 8.84738 9.82051 9.82295C8.84494 10.7985 8.29688 12.1217 8.29688 13.5013C8.29688 14.881 8.84494 16.2041 9.82051 17.1797C10.7961 18.1552 12.1192 18.7033 13.4989 18.7033C14.8785 18.7033 16.2017 18.1552 17.1772 17.1797C18.1528 16.2041 18.7009 14.881 18.7009 13.5013C18.7009 12.1217 18.1528 10.7985 17.1772 9.82295C16.2017 8.84738 14.8785 8.29932 13.4989 8.29932ZM13.4989 16.8797C12.6026 16.8797 11.743 16.5236 11.1092 15.8899C10.4754 15.2561 10.1194 14.3965 10.1194 13.5002C10.1194 12.6039 10.4754 11.7443 11.1092 11.1105C11.743 10.4767 12.6026 10.1207 13.4989 10.1207C14.3952 10.1207 15.2548 10.4767 15.8885 11.1105C16.5223 11.7443 16.8784 12.6039 16.8784 13.5002C16.8784 14.3965 16.5223 15.2561 15.8885 15.8899C15.2548 16.5236 14.3952 16.8797 13.4989 16.8797Z" fill="black"/>
<path d="M18.9071 9.32052C19.5769 9.32052 20.1198 8.77755 20.1198 8.10777C20.1198 7.43799 19.5769 6.89502 18.9071 6.89502C18.2373 6.89502 17.6943 7.43799 17.6943 8.10777C17.6943 8.77755 18.2373 9.32052 18.9071 9.32052Z" fill="black"/>
<path d="M23.0993 6.87511C22.8389 6.20256 22.4409 5.5918 21.9308 5.08193C21.4208 4.57205 20.8098 4.17429 20.1372 3.91411C19.3501 3.61864 18.5185 3.45887 17.678 3.44161C16.5946 3.39436 16.2515 3.38086 13.5042 3.38086C10.757 3.38086 10.4048 3.38086 9.33045 3.44161C8.49052 3.45799 7.65955 3.61779 6.87345 3.91411C6.20063 4.17399 5.58956 4.57164 5.07945 5.08155C4.56934 5.59147 4.17146 6.20239 3.91133 6.87511C3.6158 7.66217 3.45639 8.4938 3.43995 9.33436C3.39158 10.4166 3.37695 10.7597 3.37695 13.5081C3.37695 16.2554 3.37695 16.6052 3.43995 17.6819C3.45683 18.5234 3.61545 19.3536 3.91133 20.1422C4.17219 20.8147 4.57046 21.4254 5.08069 21.9352C5.59093 22.4451 6.2019 22.8429 6.87458 23.1032C7.65919 23.4106 8.4905 23.5818 9.3327 23.6095C10.4161 23.6567 10.7592 23.6714 13.5065 23.6714C16.2537 23.6714 16.6058 23.6714 17.6802 23.6095C18.5207 23.5924 19.3522 23.433 20.1395 23.1381C20.8119 22.8773 21.4227 22.4792 21.9327 21.9692C22.4427 21.4592 22.8408 20.8485 23.1016 20.176C23.3975 19.3885 23.5561 18.5582 23.573 17.7167C23.6213 16.6345 23.636 16.2914 23.636 13.543C23.636 10.7946 23.636 10.4459 23.573 9.36923C23.5599 8.51679 23.3996 7.67301 23.0993 6.87511ZM21.7291 17.5986C21.7218 18.247 21.6035 18.8893 21.3792 19.4976C21.2103 19.9351 20.9516 20.3324 20.6199 20.6639C20.2882 20.9954 19.8908 21.2538 19.4532 21.4225C18.8516 21.6457 18.2161 21.7641 17.5745 21.7724C16.5057 21.8219 16.2042 21.8342 13.4637 21.8342C10.721 21.8342 10.4408 21.8342 9.35183 21.7724C8.7105 21.7645 8.07532 21.6462 7.4742 21.4225C7.0351 21.2548 6.63608 20.9969 6.30295 20.6653C5.96983 20.3337 5.71002 19.9359 5.54033 19.4976C5.31921 18.8958 5.20093 18.2611 5.19045 17.62C5.14208 16.5512 5.13083 16.2497 5.13083 13.5092C5.13083 10.7676 5.13083 10.4875 5.19045 9.39736C5.19772 8.74938 5.31607 8.10746 5.54033 7.49948C5.88345 6.61186 6.58658 5.91323 7.4742 5.57348C8.07562 5.35089 8.71061 5.23257 9.35183 5.22361C10.4217 5.17523 10.7221 5.16173 13.4637 5.16173C16.2053 5.16173 16.4866 5.16173 17.5745 5.22361C18.2162 5.23133 18.8517 5.34969 19.4532 5.57348C19.8907 5.74254 20.2881 6.00121 20.6198 6.33289C20.9515 6.66457 21.2101 7.06194 21.3792 7.49948C21.6003 8.1013 21.7186 8.73604 21.7291 9.37711C21.7775 10.447 21.7898 10.7474 21.7898 13.489C21.7898 16.2295 21.7898 16.5242 21.7415 17.5997H21.7291V17.5986Z" fill="black"/>
</svg>
